<svg width="24" height="24" fill="none" xmlns="http://www.w3.org/2000/svg"><path d="M22.125 21.188c0 .517-.42.937-.938.937h-.937v.938a.937.937 0 11-1.875 0v-.938h-.938a.937.937 0 110-1.875h.938v-.938a.937.937 0 111.875 0v.938h.938c.517 0 .937.42.937.938zm0-14.625v9a.937.937 0 11-1.875 0V7.5h-1.875v2.813a.937.937 0 11-1.875 0V7.5h-9v2.813a.937.937 0 11-1.875 0V7.5H3.75v14.625h9.938a.937.937 0 110 1.875H2.812a.937.937 0 01-.937-.938v-16.5c0-.517.42-.937.938-.937h2.856C6.042 2.462 8.74 0 12 0a6.383 6.383 0 016.33 5.625h2.858c.517 0 .937.42.937.938zm-5.688-.938A4.507 4.507 0 0012 1.875a4.507 4.507 0 00-4.437 3.75h8.874z" fill="#66707B"/></svg>