<svg width="16" height="16" fill="none" xmlns="http://www.w3.org/2000/svg"><path d="M15.62 5.565a.334.334 0 00-.318-.232h-4.41a.333.333 0 00-.288.502l3.666 6.29a.331.331 0 00.285.165h.002a.33.33 0 00.285-.16A7.984 7.984 0 0016 8a7.99 7.99 0 00-.38-2.435zM7.143 4.5c.06.103.17.167.29.167h7.3a.333.333 0 00.293-.493A7.991 7.991 0 009.717.189a.333.333 0 00-.36.159L7.144 4.166a.334.334 0 000 .334zm4.619 4.646a.333.333 0 00-.576 0L7.508 15.49a.334.334 0 00.279.5l.074.005c.046.003.092.006.14.006a8.01 8.01 0 005.94-2.655.334.334 0 00.04-.39l-2.22-3.81zM5.404 10.5a.333.333 0 00.001-.333L1.763 3.826a.334.334 0 00-.284-.168c-.122-.015-.228.058-.289.159a7.976 7.976 0 00-.81 6.618.334.334 0 00.318.232h4.418c.119 0 .23-.064.288-.167zm3.453 1a.335.335 0 00-.29-.167h-7.3a.333.333 0 00-.293.493 7.992 7.992 0 005.309 3.984.334.334 0 00.36-.158l2.213-3.818a.334.334 0 000-.334zM4.254 6.824c.06.103.17.167.288.168h.001c.12 0 .228-.064.288-.167L8.492.511a.334.334 0 00-.278-.5L8.139.005A1.944 1.944 0 008 0C5.767 0 3.617.95 2.1 2.61a.334.334 0 00-.042.39l2.196 3.824z" fill="#66707B"/></svg>