<svg width="16" height="16" fill="none" xmlns="http://www.w3.org/2000/svg"><g clip-path="url(#clip0)" fill="#66707B"><path d="M8 3.25a4.777 4.777 0 00-4.772 4.772A4.78 4.78 0 008 12.793a4.78 4.78 0 004.772-4.771A4.777 4.777 0 008 3.25zm2.393 3.628l-2.88 2.716a.28.28 0 01-.2.08.283.283 0 01-.206-.087L5.6 8.04a.29.29 0 01.414-.407L7.32 8.977l2.673-2.52a.29.29 0 11.4.421z"/><path d="M14.852 9.761L16 8.021l-1.148-1.739a.294.294 0 01-.047-.174l.116-2.084-1.855-.94a.287.287 0 01-.127-.128L12.002 1.1l-2.085.116a.293.293 0 01-.174-.047L8 .022 6.26 1.169a.292.292 0 01-.174.047L4.002 1.1l-.94 1.856a.287.287 0 01-.128.127l-1.856.937.117 2.084a.294.294 0 01-.047.175L0 8.022l1.148 1.74c.033.051.05.112.047.174l-.117 2.084 1.856.937c.055.027.1.072.127.127l.937 1.856 2.085-.117h.014a.303.303 0 01.16.048l1.74 1.147 1.739-1.147a.294.294 0 01.174-.048l2.085.117.937-1.856a.287.287 0 01.127-.127l1.855-.937-.116-2.084a.365.365 0 01.054-.175zM8 13.375a5.358 5.358 0 01-5.353-5.353c0-2.953 2.4-5.353 5.353-5.353 2.952 0 5.353 2.4 5.353 5.353 0 2.952-2.4 5.352-5.353 5.352z"/></g><defs><clipPath id="clip0"><path fill="#fff" d="M0 0h16v16H0z"/></clipPath></defs></svg>