<svg width="17" height="10" fill="none" xmlns="http://www.w3.org/2000/svg"><path d="M8.654 10c2.315 0 1.49-1.465 1.668-1.887-.002-.314-.005-.617.006-.801.146.041.492.217 1.207.911C12.638 9.337 12.92 10 13.812 10h1.64c.52 0 .791-.215.926-.396.131-.175.259-.481.119-.959-.366-1.149-2.5-3.134-2.633-3.343.02-.039.052-.09.068-.117h-.001c.421-.556 2.03-2.966 2.266-3.93l.001-.005c.128-.44.011-.725-.11-.887C15.905.122 15.614 0 15.222 0H13.58c-.55 0-.966.277-1.177.781-.352.897-1.343 2.741-2.086 3.394a43.51 43.51 0 01.005-2.156C10.347.996 10.424 0 9.363 0h-2.58c-.665 0-1.301.727-.612 1.59.603.755.217 1.177.347 3.274C6.01 4.321 5.11 2.854 4.472.978 4.294.471 4.022.001 3.261.001H1.62C.954 0 .557.363.557.97.558 2.335 3.577 10 8.654 10zM3.261 1c.145 0 .16 0 .267.305.652 1.922 2.116 4.766 3.186 4.766.803 0 .803-.823.803-1.133V2.47C7.471 1.653 7.174 1.247 6.98 1l2.338.003c.002.011-.013 2.73.007 3.388 0 .936.743 1.472 1.902.298 1.223-1.38 2.07-3.444 2.103-3.528.05-.12.094-.161.251-.161h1.647l-.001.006c-.15.7-1.63 2.93-2.126 3.623a.568.568 0 00-.023.034c-.218.356-.395.749.03 1.302h.001c.039.047.14.156.286.308.456.471 2.02 2.08 2.159 2.72-.092.015-.192.004-1.742.008-.33 0-.588-.494-1.573-1.487-.885-.861-1.46-1.213-1.983-1.213-1.016 0-.942.824-.933 1.822.003 1.081-.003.739.004.807-.06.023-.23.07-.673.07-4.23 0-6.984-6.714-7.09-7.997C1.6.999 2.105 1 3.26 1z" fill="#282A2E"/></svg>