<svg width="17" height="16" fill="none" xmlns="http://www.w3.org/2000/svg"><path d="M10.926.941H5.632A4.412 4.412 0 001.22 5.353v5.294a4.412 4.412 0 004.412 4.412h5.294a4.412 4.412 0 004.412-4.412V5.353A4.412 4.412 0 0010.926.941zm3.088 9.706a3.092 3.092 0 01-3.088 3.088H5.632a3.092 3.092 0 01-3.088-3.088V5.353a3.092 3.092 0 013.088-3.088h5.294a3.092 3.092 0 013.088 3.088v5.294z" fill="#282A2E"/><path d="M8.279 4.47a3.53 3.53 0 100 7.06 3.53 3.53 0 000-7.06zm0 5.736A2.209 2.209 0 016.073 8c0-1.217.99-2.206 2.206-2.206s2.206.99 2.206 2.206-.99 2.206-2.206 2.206zm3.794-5.53a.47.47 0 100-.94.47.47 0 000 .94z" fill="#282A2E"/></svg>