<svg width="10" height="16" fill="none" xmlns="http://www.w3.org/2000/svg"><path d="M6.08 15.969H3.513a.778.778 0 01-.778-.776v-5.78H1.238a.778.778 0 01-.778-.776V6.161c0-.428.349-.776.778-.776h1.497v-1.24c0-1.23.387-2.276 1.119-3.026.735-.752 1.762-1.15 2.97-1.15l1.959.003c.428 0 .776.349.776.776v2.3a.778.778 0 01-.777.775l-1.319.001c-.402 0-.504.08-.526.105-.036.041-.079.157-.079.476v.98h1.825a.779.779 0 01.785.776l-.002 2.476a.778.778 0 01-.777.776h-1.83v5.78a.778.778 0 01-.779.776zm-2.405-.938h2.243V8.993a.52.52 0 01.52-.518h2.089V6.323h-2.09a.52.52 0 01-.519-.519v-1.4c0-.366.037-.782.315-1.096.334-.378.862-.422 1.23-.422H8.62V.91L6.824.907c-1.942 0-3.149 1.24-3.149 3.238v1.66a.52.52 0 01-.519.518H1.4v2.152h1.756a.52.52 0 01.52.518v6.038zM8.781.91z" fill="#282A2E"/></svg>