<svg width="803" height="1015" fill="none" xmlns="http://www.w3.org/2000/svg"><path d="M846 1014H1.466c152.928-118.336 251.393-303.669 251.393-512 0-198.955-89.805-402.675-231.126-521.5H846V1014z" fill="#222736" fill-opacity=".4" stroke="#fff"/><path d="M277.818 700.982v2.184h-8.06V719h-2.522v-18.018h10.582zm5.723 16.276c.572 0 1.075-.009 1.508-.026a7.625 7.625 0 001.118-.156v-4.03c-.173-.087-.459-.156-.858-.208a8.04 8.04 0 00-1.404-.104c-.364 0-.754.026-1.17.078a3.499 3.499 0 00-1.118.338 2.24 2.24 0 00-.832.676c-.225.277-.338.65-.338 1.118 0 .867.277 1.473.832 1.82.555.329 1.309.494 2.262.494zm-.208-12.116c.971 0 1.785.13 2.444.39.676.243 1.213.598 1.612 1.066.416.451.711.997.884 1.638.173.624.26 1.317.26 2.08v8.45c-.208.035-.503.087-.884.156-.364.052-.78.104-1.248.156-.468.052-.979.095-1.534.13-.537.052-1.075.078-1.612.078a8.9 8.9 0 01-2.106-.234 4.863 4.863 0 01-1.664-.728 3.496 3.496 0 01-1.092-1.352c-.26-.555-.39-1.222-.39-2.002 0-.745.147-1.387.442-1.924a3.736 3.736 0 011.248-1.3 5.73 5.73 0 011.82-.728 9.92 9.92 0 012.184-.234c.243 0 .494.017.754.052.26.017.503.052.728.104a11.516 11.516 0 01.988.182v-.676c0-.399-.043-.789-.13-1.17a2.603 2.603 0 00-.468-1.04 2.203 2.203 0 00-.936-.728c-.381-.191-.884-.286-1.508-.286-.797 0-1.499.061-2.106.182-.589.104-1.031.217-1.326.338l-.286-2.002c.312-.139.832-.269 1.56-.39a12.628 12.628 0 012.366-.208zm13.818 0a9.7 9.7 0 012.184.234c.676.156 1.256.39 1.742.702a3.52 3.52 0 011.144 1.17c.277.468.416 1.014.416 1.638 0 .399-.07.763-.208 1.092a3.707 3.707 0 01-1.222 1.56 2.487 2.487 0 01-.702.364c.797.243 1.421.676 1.872 1.3.468.607.702 1.378.702 2.314 0 1.283-.52 2.236-1.56 2.86-1.04.624-2.453.936-4.238.936-1.092 0-2.037-.087-2.834-.26-.78-.173-1.335-.338-1.664-.494l.416-2.054c.277.104.771.251 1.482.442.728.173 1.594.26 2.6.26 1.092 0 1.924-.165 2.496-.494.572-.347.858-.858.858-1.534 0-.485-.113-.875-.338-1.17a1.969 1.969 0 00-.806-.702 3.624 3.624 0 00-1.066-.312 7.931 7.931 0 00-1.066-.078h-2.262v-1.924h2.184c.312 0 .632-.017.962-.052.346-.052.658-.147.936-.286.294-.139.537-.329.728-.572.19-.26.286-.598.286-1.014 0-.329-.087-.607-.26-.832a1.808 1.808 0 00-.65-.598 3.157 3.157 0 00-.988-.338 4.91 4.91 0 00-1.144-.13 7.2 7.2 0 00-1.014.078c-.364.052-.72.121-1.066.208a8.994 8.994 0 00-.936.234 3.298 3.298 0 00-.598.234l-.442-2.08c.138-.052.355-.121.65-.208.294-.087.624-.165.988-.234.381-.069.78-.13 1.196-.182a9.844 9.844 0 011.222-.078zm25.452-192.154a30.926 30.926 0 01-1.092 2.262 7.456 7.456 0 01-1.326 1.82 5.295 5.295 0 01-1.846 1.222c-.711.295-1.595.442-2.652.442a4.23 4.23 0 01-.65-.052 3.868 3.868 0 01-.65-.104 3.665 3.665 0 01-.546-.13 1.242 1.242 0 01-.338-.156l.442-2.132c.225.087.494.173.806.26.329.087.667.13 1.014.13.52 0 .97-.061 1.352-.182a4.15 4.15 0 001.066-.546c.312-.243.589-.529.832-.858.242-.347.476-.728.702-1.144a91.616 91.616 0 01-2.158-3.666 104.58 104.58 0 01-3.432-6.812c-.468-1.04-.884-1.993-1.248-2.86h2.86c.572 1.508 1.3 3.189 2.184 5.044a157.057 157.057 0 002.99 5.824 58.788 58.788 0 001.976-5.2 164.944 164.944 0 001.794-5.668h2.73a106.487 106.487 0 01-1.196 3.536 163.62 163.62 0 01-1.196 3.172 288.682 288.682 0 01-1.196 2.964c-.399.953-.806 1.898-1.222 2.834zm16.155-5.98h-5.954V518.5h-2.418v-13.52h8.372v2.028zm15.599 4.732c0 1.075-.156 2.045-.468 2.912a6.543 6.543 0 01-1.326 2.236 5.79 5.79 0 01-2.002 1.456 6.488 6.488 0 01-2.548.494 6.492 6.492 0 01-2.548-.494 6.064 6.064 0 01-2.028-1.456 6.788 6.788 0 01-1.3-2.236c-.312-.867-.468-1.837-.468-2.912 0-1.057.156-2.019.468-2.886.312-.884.746-1.638 1.3-2.262a5.754 5.754 0 012.028-1.43 6.2 6.2 0 012.548-.52c.919 0 1.768.173 2.548.52.78.329 1.448.806 2.002 1.43.572.624 1.014 1.378 1.326 2.262.312.867.468 1.829.468 2.886zm-2.522 0c0-1.525-.346-2.73-1.04-3.614-.676-.901-1.603-1.352-2.782-1.352-1.178 0-2.114.451-2.808 1.352-.676.884-1.014 2.089-1.014 3.614s.338 2.739 1.014 3.64c.694.884 1.63 1.326 2.808 1.326 1.179 0 2.106-.442 2.782-1.326.694-.901 1.04-2.115 1.04-3.64zm11.8-4.732c0 .572-.017 1.187-.052 1.846a25.125 25.125 0 01-.13 1.95 24.53 24.53 0 01-.286 1.924 13.078 13.078 0 01-.468 1.768 8 8 0 01-.728 1.56 5.357 5.357 0 01-1.04 1.3 6.166 6.166 0 01-1.456.936c-.555.243-1.205.399-1.95.468l-.338-2.028c.849-.173 1.517-.494 2.002-.962a5.089 5.089 0 001.196-1.716c.26-.589.451-1.257.572-2.002a24.31 24.31 0 00.26-2.314c.052-.815.078-1.629.078-2.444.017-.815.026-1.586.026-2.314h8.996v13.52h-2.418v-11.492h-4.264zm17.125 9.802c1.023 0 1.829-.199 2.418-.598.59-.399.884-1.04.884-1.924 0-.433-.086-.806-.26-1.118a2.024 2.024 0 00-.728-.754 2.818 2.818 0 00-1.04-.442 5.025 5.025 0 00-1.274-.156c-.468 0-.953.017-1.456.052a6.071 6.071 0 00-1.248.156v4.654c.104.017.26.035.468.052.208.017.434.035.676.052.26 0 .52.009.78.026h.78zm-5.122 1.404V504.98h2.418v5.174a6.32 6.32 0 01.546-.104c.243-.035.494-.069.754-.104a14.516 14.516 0 011.69-.104c.746 0 1.448.087 2.106.26a4.577 4.577 0 011.716.78c.503.347.902.806 1.196 1.378.295.555.442 1.222.442 2.002 0 .815-.138 1.508-.416 2.08a3.605 3.605 0 01-1.196 1.404c-.52.364-1.144.624-1.872.78-.71.173-1.508.26-2.392.26-.866 0-1.716-.052-2.548-.156a18.95 18.95 0 01-2.444-.416zM279.117 307.14v4.576h2.236c1.265 0 2.392.104 3.38.312 1.005.208 1.854.546 2.548 1.014a4.455 4.455 0 011.586 1.768c.364.711.546 1.586.546 2.626 0 1.907-.694 3.345-2.08 4.316-1.387.953-3.346 1.43-5.876 1.43a30.728 30.728 0 01-3.718-.234 9.59 9.59 0 01-1.144-.208v-17.758h11.128v2.158h-8.606zm2.548 13.832c.676 0 1.317-.052 1.924-.156a5.064 5.064 0 001.638-.546c.468-.277.84-.641 1.118-1.092.277-.451.416-1.023.416-1.716 0-.728-.13-1.326-.39-1.794a2.755 2.755 0 00-1.066-1.118c-.468-.277-1.049-.468-1.742-.572a13.232 13.232 0 00-2.314-.182h-2.132v7.098c.19.017.416.035.676.052.225.017.494.026.806.026h1.066zm23.403-11.492V323h-2.34v-10.296c-.52.659-1.092 1.43-1.716 2.314a95.426 95.426 0 00-1.872 2.756c-.624.936-1.222 1.863-1.794 2.782-.572.919-1.066 1.733-1.482 2.444h-2.158v-13.52h2.34v9.724c.451-.745.962-1.56 1.534-2.444a71.83 71.83 0 011.768-2.652 88.307 88.307 0 011.846-2.522 32.22 32.22 0 011.742-2.106h2.132zm17.256 6.76c0 1.075-.156 2.045-.468 2.912a6.543 6.543 0 01-1.326 2.236 5.799 5.799 0 01-2.002 1.456 6.488 6.488 0 01-2.548.494 6.488 6.488 0 01-2.548-.494 6.064 6.064 0 01-2.028-1.456c-.555-.624-.988-1.369-1.3-2.236-.312-.867-.468-1.837-.468-2.912 0-1.057.156-2.019.468-2.886.312-.884.745-1.638 1.3-2.262a5.754 5.754 0 012.028-1.43 6.196 6.196 0 012.548-.52c.919 0 1.768.173 2.548.52a5.51 5.51 0 012.002 1.43c.572.624 1.014 1.378 1.326 2.262.312.867.468 1.829.468 2.886zm-2.522 0c0-1.525-.347-2.73-1.04-3.614-.676-.901-1.603-1.352-2.782-1.352s-2.115.451-2.808 1.352c-.676.884-1.014 2.089-1.014 3.614s.338 2.739 1.014 3.64c.693.884 1.629 1.326 2.808 1.326 1.179 0 2.106-.442 2.782-1.326.693-.901 1.04-2.115 1.04-3.64zm6.147-2.158h6.422v2.262h-6.422v-2.262zm19.885-4.602v2.028h-4.394V323h-2.418v-11.492h-4.394v-2.028h11.206zm15.598 6.76c0 1.075-.156 2.045-.468 2.912a6.543 6.543 0 01-1.326 2.236 5.799 5.799 0 01-2.002 1.456c-.78.329-1.63.494-2.548.494a6.488 6.488 0 01-2.548-.494 6.064 6.064 0 01-2.028-1.456c-.555-.624-.988-1.369-1.3-2.236-.312-.867-.468-1.837-.468-2.912 0-1.057.156-2.019.468-2.886.312-.884.745-1.638 1.3-2.262a5.754 5.754 0 012.028-1.43 6.196 6.196 0 012.548-.52 6.2 6.2 0 012.548.52 5.51 5.51 0 012.002 1.43c.572.624 1.014 1.378 1.326 2.262.312.867.468 1.829.468 2.886zm-2.522 0c0-1.525-.347-2.73-1.04-3.614-.676-.901-1.604-1.352-2.782-1.352-1.179 0-2.115.451-2.808 1.352-.676.884-1.014 2.089-1.014 3.614s.338 2.739 1.014 3.64c.693.884 1.629 1.326 2.808 1.326 1.178 0 2.106-.442 2.782-1.326.693-.901 1.04-2.115 1.04-3.64zm17.962 6.76h-2.418v-11.492h-6.032V323h-2.418v-13.52h10.868V323zm10.039-11.492c0 .572-.018 1.187-.052 1.846a25.63 25.63 0 01-.13 1.95 25.01 25.01 0 01-.286 1.924 13.38 13.38 0 01-.468 1.768 8.058 8.058 0 01-.728 1.56 5.381 5.381 0 01-1.04 1.3 6.187 6.187 0 01-1.456.936c-.555.243-1.205.399-1.95.468l-.338-2.028c.849-.173 1.516-.494 2.002-.962a5.103 5.103 0 001.196-1.716c.26-.589.45-1.257.572-2.002a24.31 24.31 0 00.26-2.314c.052-.815.078-1.629.078-2.444.017-.815.026-1.586.026-2.314h8.996V323h-2.418v-11.492h-4.264zm23.365-2.028V323h-2.34v-10.296c-.52.659-1.092 1.43-1.716 2.314a95.426 95.426 0 00-1.872 2.756c-.624.936-1.222 1.863-1.794 2.782-.572.919-1.066 1.733-1.482 2.444h-2.158v-13.52h2.34v9.724c.451-.745.962-1.56 1.534-2.444a70.584 70.584 0 011.768-2.652 86.416 86.416 0 011.846-2.522 32.22 32.22 0 011.742-2.106h2.132zm7.688 11.7c.104.017.251.035.442.052.19.017.407.035.65.052.242 0 .494.009.754.026h.78c.502 0 .979-.035 1.43-.104a3.742 3.742 0 001.196-.364c.346-.173.615-.399.806-.676.208-.295.312-.667.312-1.118 0-.433-.096-.789-.286-1.066a1.891 1.891 0 00-.728-.702 3.396 3.396 0 00-1.118-.364 8.276 8.276 0 00-1.352-.104h-2.886v4.368zm2.574-6.162a9.49 9.49 0 001.274-.078 3.172 3.172 0 001.014-.338 1.69 1.69 0 00.676-.624c.173-.26.26-.589.26-.988 0-.416-.104-.745-.312-.988a1.889 1.889 0 00-.832-.546 3.707 3.707 0 00-1.144-.26 10.267 10.267 0 00-1.274-.078c-.399 0-.806.009-1.222.026-.399.017-.737.035-1.014.052v3.822h2.574zm-.052 8.216c-1.023 0-1.968-.052-2.834-.156-.867-.087-1.552-.191-2.054-.312V309.61c.502-.121 1.187-.225 2.054-.312a23.858 23.858 0 012.834-.156c.71 0 1.404.061 2.08.182a5.612 5.612 0 011.794.624c.52.277.936.667 1.248 1.17.329.485.494 1.092.494 1.82 0 .659-.165 1.222-.494 1.69-.33.468-.772.832-1.326 1.092.745.26 1.334.65 1.768 1.17.45.503.676 1.213.676 2.132 0 .815-.165 1.491-.494 2.028a3.538 3.538 0 01-1.326 1.3c-.555.329-1.214.555-1.976.676-.763.139-1.578.208-2.444.208zm22.46-6.994c0 1.075-.156 2.045-.468 2.912a6.543 6.543 0 01-1.326 2.236 5.799 5.799 0 01-2.002 1.456c-.78.329-1.63.494-2.548.494a6.488 6.488 0 01-2.548-.494 6.064 6.064 0 01-2.028-1.456c-.555-.624-.988-1.369-1.3-2.236-.312-.867-.468-1.837-.468-2.912 0-1.057.156-2.019.468-2.886.312-.884.745-1.638 1.3-2.262a5.754 5.754 0 012.028-1.43 6.196 6.196 0 012.548-.52 6.2 6.2 0 012.548.52 5.51 5.51 0 012.002 1.43c.572.624 1.014 1.378 1.326 2.262.312.867.468 1.829.468 2.886zm-2.522 0c0-1.525-.347-2.73-1.04-3.614-.676-.901-1.604-1.352-2.782-1.352-1.179 0-2.115.451-2.808 1.352-.676.884-1.014 2.089-1.014 3.614s.338 2.739 1.014 3.64c.693.884 1.629 1.326 2.808 1.326 1.178 0 2.106-.442 2.782-1.326.693-.901 1.04-2.115 1.04-3.64zm-207.065-2.74a8 8 0 11-16 0 8 8 0 0116 0z" fill="#fff"/><circle cx="252.359" cy="508.5" r="8" fill="#fff"/><circle cx="219.359" cy="708.5" r="8" fill="#fff"/></svg>