<svg width="147" height="72" fill="none" xmlns="http://www.w3.org/2000/svg"><path d="M0 62.888V47.455h6.276v1.985H3.307v3.704c1.687 0 2.844.161 3.48.485.635.323.951 1.073.951 2.248v4.278c0 .881-.264 1.557-.79 2.028-.529.47-1.616.705-3.266.705H0zm4.431-3.024v-3.707c0-.54-.334-.809-1.006-.809h-.118v5.336c.75.007 1.124-.265 1.124-.82zm13.342 3.024H14.4l-.57-4.145h-1.499l-.576 4.145H8.38l2.528-15.433h4.333l2.531 15.433zm-4.214-6.283l-.485-4.608-.463 4.608h.948zm8.05.595v5.688h-3.307V47.455h3.565c1.41 0 2.461.18 3.145.537.687.36 1.029 1.091 1.029 2.197v4.277c0 1.015-.28 1.727-.838 2.146-.562.423-1.756.618-3.594.588zm1.125-3.02v-3.704c0-.544-.375-.816-1.125-.816v5.336c.75 0 1.125-.272 1.125-.816zm11.593 8.708h-3.395v-7.407h-.926v7.407H26.61V47.455h3.396v6.151h.925v-6.15h3.396v15.432zm9.873 0h-3.373l-.57-4.145h-1.499l-.577 4.145h-3.373l2.528-15.433h4.332L44.2 62.888zm-4.215-6.283l-.484-4.608-.464 4.608h.948zm13.034-9.15L50.524 60.2c-.202 1.017-.522 1.723-.967 2.12-.44.393-1.08.591-1.918.591h-2.065v-1.984c.787 0 1.283-.04 1.485-.125.198-.08.301-.312.301-.69 0-.063-.026-.203-.077-.42l-2.84-12.236h3.174l1.39 7.383 1.013-7.383h2.999zm9.454 15.433h-3.307V49.462h-1.168v11.622c0 1.32-.853 1.98-2.561 1.98-.746 0-1.415-.058-2.003-.172V60.72c.231.092.492.14.786.14.25 0 .416-.059.489-.173.077-.114.114-.396.114-.848V47.455h7.65v15.433zm.794-11.35h3.086c0-1.018.019-1.628.06-1.823.04-.198.18-.297.425-.297.309 0 .463.15.463.455v3.976H64.3v1.984h3.002v4.715c0 .253-.161.378-.485.378-.308 0-.463-.125-.463-.378v-2.495h-3.086v2.605c0 .727.356 1.312 1.065 1.76.713.445 1.525.669 2.444.669 2.612 0 3.92-.93 3.92-2.786v-9.965c0-2.01-1.308-3.013-3.92-3.013-2.34 0-3.51.915-3.51 2.741v1.474zm15.81 11.35h-3.394v-7.407h-.926v7.407h-3.395V47.455h3.395v6.151h.926v-6.15h3.395v15.432zm7.339 0H79.78V47.455h6.592v1.985h-3.197v4.166h2.885v1.875h-2.885v5.423h3.24v1.984zm3.862-5.688v5.688H86.97V47.455h3.564c1.41 0 2.462.18 3.145.537.687.36 1.03 1.091 1.03 2.197v4.277c0 1.015-.28 1.727-.839 2.146-.562.423-1.756.618-3.593.588zm1.124-3.02v-3.704c0-.544-.375-.816-1.124-.816v5.336c.75 0 1.124-.272 1.124-.816zm10.27-6.725v1.985h-2.954v13.448h-3.395V47.455h6.349zm.551 12.791v-9.924c0-2 1.294-2.999 3.884-2.999 2.554 0 3.833.992 3.833 2.977v9.924c0 .897-.357 1.588-1.07 2.073-.709.481-1.638.724-2.781.724-2.576 0-3.866-.926-3.866-2.775zm4.41.151V49.903c0-.309-.18-.463-.541-.463-.374 0-.562.154-.562.463v10.494c0 .309.188.463.562.463.361 0 .541-.154.541-.463zm15.848 2.491h-3.021v-8.664l-1.767 8.664h-2.337l-2.025-8.664v8.664h-2.645V47.455h4.357l1.551 8.007 1.349-8.007h4.538v15.433zm9.917 0h-3.373l-.57-4.145h-1.499l-.577 4.145h-3.373l2.528-15.433h4.332l2.532 15.433zm-4.215-6.283l-.485-4.608-.463 4.608h.948zm17.884 6.283h-13.118V47.455h3.307v13.008h1.587V47.455h3.307v13.008h1.61V47.455h3.307v15.433z" fill="#EF7F1A"/><path fill-rule="evenodd" clip-rule="evenodd" d="M60.557 46.14c-.482-4.229 1.632-6.413 5.523-7.197 6.023-.591 12.697 1.125 17.853-.557 3.954-1.29 5.165-3.432 2.342-6.455-1.066-1.705-.547-3.278 1.898-3.507 6.824-.353 10.863-3.537 11.832-7.829.98-4.338-1.177-9.808-6.766-14.626C88.325 1.734 81.87-.12 75.055.006c4.757 2.357 6.97 4.6 7.045 6.637.103 2.814-3.87 5.235-10.843 7.019-4.031 1.296-9.788 3-11.985 7.136-1.436 2.703-.788 5.723 3.7 7.627 2.813 1.207 2.05 3.221-.172 3.69-4.07-.249-8.06 2.818-6.17 7.427.855 2.084 2.323 4.306 3.926 6.598z" fill="#EF7F1A"/><path d="M35.298 69.865c.048.382.163.655.344.816.183.162.451.244.806.244.377 0 .668-.139.874-.414.207-.275.317-.674.331-1.195h-1.86v-.74h1.86c-.02-.52-.136-.916-.35-1.19-.213-.274-.512-.412-.898-.412-.338 0-.597.084-.776.252-.18.17-.292.443-.335.823h-.913c.058-.574.264-1.02.618-1.339.353-.317.821-.477 1.405-.477.433 0 .812.102 1.14.304.328.203.581.493.76.87.176.377.266.813.268 1.307v.446c0 .499-.086.938-.259 1.316a1.95 1.95 0 01-.744.871 2.064 2.064 0 01-1.121.304c-.598 0-1.079-.158-1.44-.473-.363-.315-.57-.754-.623-1.313h.913zm8.337 1.712h-.912v-2.335h-2.356v2.335h-.915v-5.27h.915v2.194h2.356v-2.194h.912v5.27zm4.163-2.35h-2.165v1.616h2.53v.734h-3.445v-5.27h3.42v.742h-2.505V68.5h2.164v.727zm2.025.4v1.95h-.915v-5.27h2.016c.588 0 1.056.154 1.402.461.346.308.52.714.52 1.22 0 .517-.17.92-.509 1.207-.338.288-.814.433-1.424.433h-1.09zm0-.74h1.101c.326 0 .574-.077.746-.23.17-.153.257-.374.257-.663 0-.286-.088-.513-.26-.684-.175-.169-.413-.257-.718-.261h-1.126v1.838zm7.192-1.838h-2.432v4.528h-.912v-5.27h3.344v.742zm3.989-.742h.915v5.27h-.915v-3.753l-2.313 3.753h-.915v-5.27h.915v3.757l2.313-3.757zm4.611 5.27v-1.964h-1.02l-1.017 1.964h-.98l1.175-2.236c-.612-.29-.919-.764-.919-1.424 0-.505.166-.898.498-1.18.331-.281.794-.425 1.387-.43h1.791v5.27h-.915zm-1.85-3.62c0 .297.085.528.25.695.167.167.417.25.75.25h.85v-1.853h-.85c-.338 0-.589.08-.753.242-.163.161-.246.384-.246.665zm9.866 3.62h-.913v-4.528h-2.32v4.528h-.912v-5.27h4.145v5.27zm2.018-1.95v1.95h-.915v-5.27h2.016c.588 0 1.056.154 1.402.461.346.308.52.714.52 1.22 0 .517-.17.92-.51 1.207-.338.288-.813.433-1.423.433h-1.09zm0-.74h1.1c.327 0 .575-.077.747-.23.17-.153.257-.374.257-.663 0-.286-.088-.513-.26-.684-.175-.169-.413-.257-.718-.261h-1.126v1.838zm8.027.192c0 .518-.09.971-.268 1.36-.18.39-.434.69-.766.898a2.102 2.102 0 01-1.145.314c-.427 0-.808-.105-1.141-.314a2.052 2.052 0 01-.775-.891c-.183-.387-.274-.833-.277-1.337v-.298c0-.514.09-.967.273-1.361a2.05 2.05 0 01.771-.903 2.095 2.095 0 011.142-.314c.43 0 .81.104 1.14.31.333.206.589.503.77.89.18.389.273.84.276 1.353v.293zm-.917-.274c0-.584-.11-1.031-.33-1.342-.22-.31-.534-.466-.94-.466-.395 0-.705.154-.927.464-.224.31-.337.749-.342 1.314v.304c0 .58.112 1.027.338 1.342.225.316.539.474.939.474.405 0 .716-.154.935-.463.219-.309.327-.76.327-1.353v-.274zm5.2-1.757h-2.433v4.529h-.911v-5.27h3.344v.742zm1.675 2.58v1.949h-.916v-5.27h2.016c.588 0 1.056.154 1.402.461.346.308.52.714.52 1.22 0 .517-.17.92-.509 1.207-.338.288-.814.433-1.424.433h-1.09zm0-.741h1.1c.327 0 .575-.077.747-.23.17-.153.256-.374.256-.663 0-.286-.087-.513-.26-.684-.174-.169-.413-.257-.718-.261h-1.125v1.838zm6.903.34h-2.165v1.616h2.53v.734h-3.445v-5.27h3.42v.742h-2.505V68.5h2.165v.727zm5.132.633c-.053.562-.261 1.002-.623 1.318-.362.315-.842.473-1.444.473-.42 0-.789-.1-1.109-.299a1.959 1.959 0 01-.74-.849c-.174-.366-.264-.792-.272-1.278v-.493c0-.498.09-.935.265-1.314a1.99 1.99 0 01.758-.877c.33-.205.71-.308 1.142-.308.581 0 1.05.158 1.404.473.355.317.561.762.619 1.34h-.912c-.043-.379-.154-.653-.331-.82-.178-.168-.437-.252-.78-.252-.398 0-.703.146-.917.436-.214.292-.324.718-.327 1.28v.467c0 .57.1 1.004.305 1.305.204.298.503.448.895.448.36 0 .63-.08.811-.242.181-.162.296-.431.344-.808h.912zm4.839 0c-.054.562-.261 1.002-.623 1.318-.362.315-.842.473-1.444.473-.42 0-.789-.1-1.109-.299a1.958 1.958 0 01-.74-.849c-.174-.366-.265-.792-.272-1.278v-.493c0-.498.089-.935.264-1.314a1.99 1.99 0 01.759-.877c.33-.205.71-.308 1.141-.308.582 0 1.05.158 1.405.473.354.317.561.762.619 1.34h-.912c-.043-.379-.155-.653-.331-.82-.178-.168-.437-.252-.781-.252-.398 0-.703.146-.916.436-.214.292-.324.718-.328 1.28v.467c0 .57.102 1.004.305 1.305.204.298.503.448.896.448.359 0 .63-.08.81-.242.182-.162.297-.431.345-.808h.912zm3.766.494h-2.041l-.427 1.223h-.951l1.99-5.27h.821l1.994 5.27h-.955l-.431-1.223zm-1.784-.741h1.527l-.763-2.188-.764 2.188zm-75.906-1.674H0v2.007h32.584v-2.007zm113.483 0h-32.584v2.007h32.584v-2.007z" fill="#EF7F1A"/></svg>