<svg width="32" height="32" fill="none" xmlns="http://www.w3.org/2000/svg"><g clip-path="url(#clip0)" fill="#fff"><path d="M31.544 8.403v-.001l-2.066-.295a.531.531 0 01-.244-.95l1.67-1.252a.531.531 0 00.106-.744l-1.912-2.548a.531.531 0 00-.743-.107l-1.67 1.253a.53.53 0 01-.845-.5l.295-2.066a.531.531 0 00-.45-.6h-.001l-3.152-.45a.531.531 0 00-.601.45l-.295 2.065a.53.53 0 01-.95.244l-1.252-1.67a.531.531 0 00-.744-.106l-1.595 1.197a10.273 10.273 0 00-2.172 0 10.089 10.089 0 00-8.895 9.047c-.015.15-.02.299-.027.448h-.16a.531.531 0 00-.519.425l-.367 1.745-1.47-1.014a.53.53 0 00-.677.062l-1.593 1.593a.531.531 0 00-.061.676l1.009 1.467-1.746.367a.531.531 0 00-.417.52v2.124a.53.53 0 00.422.52l1.745.367-1.009 1.467a.531.531 0 00.062.676l1.593 1.593a.53.53 0 00.677.062l1.467-1.012.367 1.745a.53.53 0 00.519.425h2.124a.531.531 0 00.52-.421l.367-1.746 1.467 1.01a.53.53 0 00.676-.062l.825-.828v1.514a2.117 2.117 0 001.062 1.828v2.95c0 1.174.95 2.124 2.123 2.124h2.124c1.173 0 2.124-.95 2.124-2.123v-2.95a2.117 2.117 0 001.062-1.83v-2.1a2.6 2.6 0 011.229-2.168c.44-.286.858-.606 1.25-.956l-.709-.791c-.35.313-.724.6-1.119.855a3.657 3.657 0 00-1.713 3.06v2.1c0 .587-.475 1.063-1.062 1.063h-4.247a1.062 1.062 0 01-1.062-1.062v-2.146a3.572 3.572 0 00-1.685-2.997 9 9 0 014.756-16.62.592.592 0 00-.02.058c-.02.14.016.281.101.394l1.252 1.669a.52.52 0 01.031.59.528.528 0 01-.53.255L14.722 6a.531.531 0 00-.601.45v.001l-.45 3.154a.528.528 0 00.45.6l2.065.296a.531.531 0 01.244.95l-1.669 1.252a.53.53 0 00-.106.743l1.911 2.549a.531.531 0 00.744.106l1.67-1.251a.531.531 0 01.843.5l-.295 2.065a.53.53 0 00.45.6l3.155.452a.531.531 0 00.601-.45l.294-2.067a.531.531 0 01.95-.243l1.253 1.668a.53.53 0 00.743.107l2.549-1.912a.53.53 0 00.106-.743l-1.251-1.67a.522.522 0 01-.032-.588.516.516 0 01.53-.255l2.066.294a.53.53 0 00.601-.45l.45-3.154a.531.531 0 00-.45-.601zM13.946 27.217h4.247v1.062h-4.247v-1.062zm0 2.123h4.247v.532c0 .586-.475 1.061-1.062 1.061h-2.123a1.062 1.062 0 01-1.062-1.061v-.532zm-4.228-9.156c.29.237.593.458.908.66.502.318.88.798 1.07 1.36l-1.14 1.136-1.102-.76a1.062 1.062 0 00-1.642.656l-.278 1.326H6.272l-.278-1.324a1.062 1.062 0 00-1.642-.656l-1.103.758-.968-.965.76-1.102a1.062 1.062 0 00-.655-1.642l-1.324-.28v-1.26l1.324-.28a1.062 1.062 0 00.655-1.639l-.76-1.105.968-.966 1.103.76a1.062 1.062 0 001.642-.655l.093-.442c.085.612.226 1.214.42 1.8a3.186 3.186 0 103.211 4.62zm-.824-.748a2.12 2.12 0 11-1.991-2.839h.02a10.055 10.055 0 001.97 2.839zm21.671-7.956l-1.54-.22a1.593 1.593 0 00-1.5 2.534l.934 1.244-1.7 1.274-.933-1.244a1.593 1.593 0 00-2.851.73l-.215 1.542-2.102-.3.22-1.54a1.593 1.593 0 00-2.533-1.5l-1.244.933-1.275-1.7 1.244-.933a1.593 1.593 0 00-.73-2.851l-1.54-.22.3-2.102 1.54.22a1.593 1.593 0 001.5-2.533l-.936-1.245 1.7-1.274.933 1.244a1.593 1.593 0 002.851-.73l.22-1.54 2.102.3-.22 1.54a1.593 1.593 0 002.533 1.5l1.244-.934 1.274 1.7-1.244.933a1.593 1.593 0 00.73 2.851l1.54.22-.302 2.101z"/><path d="M22.832 5.056a4.248 4.248 0 100 8.495 4.248 4.248 0 000-8.495zm0 7.433a3.186 3.186 0 110-6.371 3.186 3.186 0 010 6.371zM16.6 23.5h-1.06v1.593h1.06V23.5zm-2.853-5.215a6.372 6.372 0 01-1.076-11.327l-.567-.899a7.434 7.434 0 001.258 13.214 3.39 3.39 0 012.177 3.165H16.6a4.443 4.443 0 00-2.854-4.153zm16.128 1.498h-3.717v1.062h3.717v-1.062zm-3.908 2.777l-.68.816 3.186 2.655.68-.816-3.186-2.655zm-1.933 1.47h-1.062v3.717h1.062v-3.716zM4.79 8.117L.542 9.179l.258 1.03 4.247-1.062-.257-1.03zM2.041 2.891l-.617.864 3.717 2.654.617-.863L2.04 2.89zM7.002.005L5.974.268 7.06 4.515l1.028-.263L7.002.005z"/></g><defs><clipPath id="clip0"><path fill="#fff" d="M0 0h32v32H0z"/></clipPath></defs></svg>