<svg width="31" height="31" fill="none" xmlns="http://www.w3.org/2000/svg"><path d="M6.054 21.433H1.211A1.21 1.21 0 000 22.644v7.145c0 .668.542 1.21 1.21 1.21h4.844a1.21 1.21 0 001.211-1.21v-7.145a1.21 1.21 0 00-1.21-1.21zm-1.21 7.145H2.421v-4.723h2.421v4.723zM16.27 14.289h-4.843a1.21 1.21 0 00-1.211 1.211v14.288c0 .67.542 1.211 1.21 1.211h4.844a1.21 1.21 0 001.211-1.21V15.5a1.21 1.21 0 00-1.21-1.21zm-1.21 14.289h-2.422V16.71h2.421v11.867zM30.774 8.197L25.319.51a1.21 1.21 0 00-1.975 0l-5.457 7.686c-.567.8.005 1.912.988 1.912h1.824v19.68c0 .668.542 1.21 1.21 1.21h4.844a1.21 1.21 0 001.21-1.21v-19.68h1.825c.98 0 1.556-1.111.987-1.912zm-4.022-.51a1.21 1.21 0 00-1.21 1.21v19.68H23.12V8.898a1.21 1.21 0 00-1.21-1.21h-.69l3.111-4.383 3.112 4.383h-.69z" fill="#EF7F1A"/></svg>