<svg width="31" height="31" fill="none" xmlns="http://www.w3.org/2000/svg"><path d="M18.631 28.235c-.256.064-.516.12-.775.168a1.248 1.248 0 00.454 2.451c.308-.057.619-.124.923-.2a1.246 1.246 0 10-.602-2.419zm9.216-16.704a1.245 1.245 0 102.366-.784 15.359 15.359 0 00-.324-.886 1.246 1.246 0 10-2.314.925c.098.245.19.495.272.745zM22.68 26.456c-.219.145-.446.286-.674.417a1.246 1.246 0 001.245 2.16c.272-.158.542-.324.804-.497a1.246 1.246 0 00-1.374-2.08zm8.308-11.444a1.247 1.247 0 00-2.49.098c.01.263.013.53.007.792a1.245 1.245 0 001.219 1.274 1.246 1.246 0 001.273-1.218c.006-.314.004-.632-.009-.946zm-3.345 8.166a1.246 1.246 0 00-1.745.249c-.158.21-.324.419-.495.62a1.247 1.247 0 001.898 1.615c.204-.239.402-.488.591-.74a1.246 1.246 0 00-.248-1.744zm1.832-4.505a1.246 1.246 0 00-1.562.816c-.078.251-.166.503-.26.75a1.247 1.247 0 002.33.887c.111-.293.215-.593.309-.891a1.247 1.247 0 00-.817-1.562zm-16.281 9.742a12.864 12.864 0 01-3.196-1.016c-.012-.007-.023-.014-.036-.02a13.686 13.686 0 01-.708-.358l-.003-.002a13.296 13.296 0 01-1.24-.775C2.148 22.114.739 13.986 4.869 8.124a12.95 12.95 0 013.196-3.18l.045-.032c4.269-2.941 10.066-3.14 14.6-.117l-.974 1.407c-.271.391-.105.677.37.634l4.229-.378c.474-.043.758-.454.63-.912L25.83 1.454c-.127-.458-.452-.513-.723-.122l-.976 1.41A15.39 15.39 0 0012.852.344c-.398.07-.792.154-1.18.252l-.007.002-.045.012a15.367 15.367 0 00-8.521 5.711c-.018.021-.037.042-.054.065a14.713 14.713 0 00-.538.777c-.014.02-.024.04-.035.06a15.364 15.364 0 00-2.456 9.062v.032c.014.313.039.63.072.942.002.02.007.039.01.059a15.38 15.38 0 004.47 9.283l.016.016.006.005a15.756 15.756 0 001.985 1.66 15.366 15.366 0 006.18 2.586 1.246 1.246 0 10.44-2.453z" fill="#EF7F1A"/><path d="M14.735 5.544c-.557 0-1.008.452-1.008 1.008v10.046l9.187 4.75a1.008 1.008 0 00.926-1.791l-8.097-4.187V6.552c0-.556-.451-1.008-1.008-1.008z" fill="#EF7F1A"/></svg>