<svg width="31" height="31" fill="none" xmlns="http://www.w3.org/2000/svg"><path d="M20.059 0C14.026 0 9.118 4.908 9.118 10.941c0 2.69.975 5.154 2.59 7.061l-2.134 2.135-1.368-1.368-7.372 7.373A2.827 2.827 0 000 28.154 2.85 2.85 0 002.846 31c.76 0 1.475-.296 2.012-.834l7.373-7.372-1.368-1.367 2.135-2.135a10.892 10.892 0 007.06 2.59c6.034 0 10.942-4.908 10.942-10.94C31 4.907 26.092 0 20.059 0zM3.569 28.877a1.023 1.023 0 01-1.446-1.446l6.083-6.083 1.446 1.446-6.083 6.083zm16.49-8.818c-5.028 0-9.118-4.09-9.118-9.118 0-5.027 4.09-9.117 9.118-9.117 5.027 0 9.117 4.09 9.117 9.117 0 5.028-4.09 9.118-9.117 9.118z" fill="#EF7F1A"/><path d="M20.059 3.647c-4.022 0-7.294 3.272-7.294 7.294s3.272 7.294 7.294 7.294 7.294-3.272 7.294-7.294-3.272-7.294-7.294-7.294zm0 12.765a5.477 5.477 0 01-5.47-5.47 5.477 5.477 0 015.47-5.471 5.477 5.477 0 015.47 5.47 5.477 5.477 0 01-5.47 5.47z" fill="#EF7F1A"/><path d="M19.147 11.475l-1.179-1.178-1.29 1.289 2.469 2.468 4.292-4.292-1.29-1.289-3.002 3.002z" fill="#EF7F1A"/></svg>