<svg width="31" height="31" fill="none" xmlns="http://www.w3.org/2000/svg"><g clip-path="url(#clip0_272:19166)" fill="#EF7F1A"><path d="M20.37 11.177l-2.614-.729-1.5-2.26c-.347-.537-1.167-.537-1.513 0l-1.5 2.26-2.613.729a.908.908 0 00-.468 1.44l1.686 2.124-.115 2.71a.908.908 0 001.224.89l2.543-.947 2.542.947a.908.908 0 001.224-.89l-.115-2.71 1.686-2.125a.908.908 0 00-.468-1.44zm-2.852 2.7a.908.908 0 00-.196.603l.071 1.681-1.577-.587a.908.908 0 00-.633 0l-1.577.587.07-1.68a.908.908 0 00-.195-.604l-1.046-1.318 1.621-.452a.908.908 0 00.513-.372l.93-1.402.931 1.402c.12.181.303.314.513.372l1.62.452-1.045 1.318z"/><path d="M30.733 23.947l-3.542-3.542C32.511 11.58 25.865-.101 15.5 0 5.136-.101-1.513 11.582 3.808 20.405L.266 23.947a.908.908 0 00.355 1.504l3.696 1.232 1.232 3.696a.908.908 0 001.504.355l4.281-4.28c2.601.868 5.73.868 8.331 0l4.282 4.28a.908.908 0 001.503-.355l1.232-3.696 3.697-1.232a.908.908 0 00.354-1.504zM6.808 28.411l-.911-2.734a.908.908 0 00-.575-.574l-2.733-.91 2.26-2.26a13.746 13.746 0 004.658 3.779L6.808 28.41zm8.692-3.118c-6.472 0-11.738-5.266-11.738-11.738.645-15.572 22.833-15.568 23.476 0 0 6.472-5.266 11.738-11.738 11.738zm10.177-.19a.908.908 0 00-.574.574l-.911 2.734-2.7-2.7a13.745 13.745 0 004.659-3.778l2.26 2.26-2.734.91z"/><path d="M15.5 3.892c-5.328 0-9.663 4.334-9.663 9.663.53 12.82 18.797 12.816 19.326 0 0-5.329-4.335-9.663-9.663-9.663zm0 17.51c-4.327 0-7.847-3.52-7.847-7.847.431-10.41 15.264-10.407 15.694 0 0 4.326-3.52 7.846-7.847 7.846z"/></g><defs><clipPath id="clip0_272:19166"><path fill="#fff" d="M0 0h31v31H0z"/></clipPath></defs></svg>