<svg width="31" height="31" fill="none" xmlns="http://www.w3.org/2000/svg"><g clip-path="url(#clip0_272:19164)" fill="#EF7F1A"><path d="M15.546 6.294c-2.342 0-4.248 2.013-4.248 4.488 0 2.475 1.906 4.488 4.248 4.488 2.343 0 4.248-2.013 4.248-4.488 0-2.475-1.905-4.488-4.248-4.488zm0 7.16c-1.34 0-2.431-1.199-2.431-2.672s1.09-2.672 2.431-2.672 2.432 1.2 2.432 2.672c0 1.473-1.09 2.671-2.432 2.671zm9.045-6.556h-.029c-2.032.016-3.67 1.773-3.653 3.915.018 2.13 1.669 3.853 3.688 3.853h.03a3.57 3.57 0 002.617-1.182 3.975 3.975 0 001.035-2.733c-.017-2.13-1.669-3.853-3.688-3.853zm1.315 5.358a1.77 1.77 0 01-1.295.594h-.014c-1.024 0-1.862-.917-1.871-2.053-.01-1.14.82-2.075 1.851-2.083h.014c1.024 0 1.863.918 1.872 2.053a2.16 2.16 0 01-.557 1.489z"/><path d="M25.533 15.12h-1.877c-1.444 0-2.76.563-3.737 1.481a6.351 6.351 0 00-3.244-.886h-2.258a6.354 6.354 0 00-3.3.919 5.449 5.449 0 00-3.773-1.514H5.467A5.474 5.474 0 000 20.588v2.314h8.025v1.804h15.042v-1.803H31v-2.315a5.474 5.474 0 00-5.467-5.468zM8.107 21.086h-6.29v-.498a3.655 3.655 0 013.65-3.651h1.877c.896 0 1.718.324 2.354.863a6.365 6.365 0 00-1.591 3.286zM21.25 22.89H9.842v-.783a4.555 4.555 0 01.934-2.768c.385-.506.874-.93 1.436-1.24a4.542 4.542 0 012.205-.568h2.258c.77 0 1.496.192 2.134.53a4.598 4.598 0 012.326 3.025c.075.328.115.67.115 1.02v.784zm7.934-1.804h-6.2a6.379 6.379 0 00-1.63-3.33 3.632 3.632 0 012.302-.82h1.877a3.655 3.655 0 013.65 3.652v.498zM6.403 6.898h-.03c-2.031.016-3.67 1.773-3.652 3.915.017 2.13 1.669 3.853 3.688 3.853h.029a3.57 3.57 0 002.618-1.182 3.975 3.975 0 001.035-2.733c-.018-2.13-1.67-3.853-3.688-3.853zm1.314 5.358a1.77 1.77 0 01-1.294.594h-.014c-1.024 0-1.863-.917-1.872-2.053-.01-1.14.821-2.075 1.852-2.083h.014c1.024 0 1.862.918 1.871 2.053a2.16 2.16 0 01-.557 1.489z"/></g><defs><clipPath id="clip0_272:19164"><path fill="#fff" d="M0 0h31v31H0z"/></clipPath></defs></svg>