<svg width="32" height="32" fill="none" xmlns="http://www.w3.org/2000/svg"><g clip-path="url(#clip0)" fill="#fff"><path d="M19.056 19.747L13.6 18.464v-3.76c.047-.036.095-.068.14-.106a8.472 8.472 0 003.035-6.065h.025A.533.533 0 0017.334 8v-.533a7.467 7.467 0 10-14.934 0v1.066c0 .295.239.534.534.534a.536.536 0 00.065-.01 8.486 8.486 0 002.994 5.54c.046.039.094.071.14.107v3.76L.679 19.747a.533.533 0 00-.411.52v11.2c0 .294.239.533.533.533h18.133a.533.533 0 00.534-.533v-11.2a.533.533 0 00-.411-.52zM6.134 30.933h-4.8V20.69l4.8-1.129v11.373zM3.467 7.467a6.4 6.4 0 0112.8 0h-1.6A2.67 2.67 0 0112 4.8a.533.533 0 00-.649-.521l-.32.071a22.943 22.943 0 00-7.564 3.174v-.057zm9.066 23.466H7.2v-9.748l1.89-.63-1.338 4.906a.533.533 0 00.038.379l1.6 3.2a.533.533 0 00.954 0l1.6-3.2a.533.533 0 00.037-.379l-1.338-4.906 1.89.63v9.748zM7.2 20.06v-1.064l1.276.64-1.276.424zm2.667 1.7l1.032 3.784-1.032 2.064-1.032-2.064 1.032-3.784zm2.666-1.7l-1.276-.427 1.277-.637v1.064zm0-2.257l-2.666 1.334L7.2 17.803v-2.427c.83.41 1.742.623 2.667.624a6.045 6.045 0 002.666-.624v2.427zm-5.856-4.025a7.416 7.416 0 01-2.652-5.34 21.877 21.877 0 016.966-2.984 3.74 3.74 0 003.676 3.08h1.04a7.406 7.406 0 01-2.65 5.244 4.982 4.982 0 01-6.38 0zM18.4 30.933h-4.8V19.56l4.8 1.13v10.243z"/><path d="M14.134 8.533h-3.2a.533.533 0 00-.534.534V9.6H9.334v-.533a.533.533 0 00-.534-.534H5.6a.533.533 0 00-.533.534V11.2c0 .295.239.533.533.533h3.2a.533.533 0 00.534-.533v-.533H10.4v.533c0 .295.239.533.534.533h3.2a.533.533 0 00.533-.533V9.067a.533.533 0 00-.533-.534zm-5.867 2.134H6.134V9.6h2.133v1.067zm5.333 0h-2.133V9.6H13.6v1.067zm17.952 2.63a.988.988 0 00-.237-.236v-.002l-1.111-.784.57-1.235a.987.987 0 00-.808-1.398l-1.354-.122-.122-1.354a.988.988 0 00-1.396-.806l-1.235.57-.784-1.112a.988.988 0 00-1.614 0l-.784 1.112-1.237-.57a.987.987 0 00-1.398.808l-.121 1.354-1.355.122a.988.988 0 00-.806 1.396l.57 1.234-1.111.784a.988.988 0 000 1.614l1.111.784-.57 1.237a.987.987 0 00.808 1.398l1.354.122.122 1.354a.99.99 0 00.49.766v6.334a.533.533 0 00.91.377l2.823-2.823 2.823 2.823a.533.533 0 00.91-.377v-6.334a.99.99 0 00.49-.767l.121-1.353 1.355-.122a.988.988 0 00.807-1.398l-.57-1.234 1.112-.784a.988.988 0 00.237-1.378zM26.934 25.38l-2.29-2.29a.533.533 0 00-.754 0l-2.29 2.29v-5.078l1.076-.497.785 1.112a.988.988 0 001.613 0l.784-1.112 1.076.497v5.078zm2.601-10.755a.986.986 0 00-.327 1.222l.552 1.192-1.307.118a.987.987 0 00-.896.895l-.12 1.309-1.19-.551a.988.988 0 00-1.222.326l-.758 1.074-.757-1.074a.986.986 0 00-1.222-.327l-1.192.552-.118-1.307a.987.987 0 00-.895-.897l-1.31-.119.552-1.19a.986.986 0 00-.327-1.223l-1.073-.757 1.074-.758a.986.986 0 00.327-1.222l-.552-1.192 1.307-.117a.987.987 0 00.896-.895l.118-1.309 1.191.551a.985.985 0 001.222-.326l.759-1.075.757 1.074c.275.39.79.528 1.222.327l1.192-.552.118 1.307a.987.987 0 00.895.897l1.308.118-.55 1.19a.986.986 0 00.326 1.223l1.074.759-1.074.757z"/><path d="M24.267 9.067a4.8 4.8 0 100 9.6 4.8 4.8 0 000-9.6zm0 8.533a3.733 3.733 0 110-7.467 3.733 3.733 0 010 7.467zm4.267-13.867h-1.067V4.8h1.067V3.733zm2.133 0H29.6V4.8h1.067V3.733zM29.6 2.667h-1.067v1.066H29.6V2.667zm0 2.133h-1.067v1.067H29.6V4.8zm-6.933-3.733H21.6v1.066h1.067V1.067zm2.133 0h-1.066v1.066H24.8V1.067zM23.733 0h-1.066v1.067h1.066V0zm0 2.133h-1.066V3.2h1.066V2.133z"/></g><defs><clipPath id="clip0"><path fill="#fff" d="M0 0h32v32H0z"/></clipPath></defs></svg>