<svg width="129" height="103" fill="none" xmlns="http://www.w3.org/2000/svg"><path d="M0 97.904c0-17.632 2.63-34.336 7.888-50.112C13.147 31.707 21.035 15.776 31.552 0l22.272 10.208c-7.733 14.848-13.147 28.459-16.24 40.832-2.784 12.373-4.176 23.973-4.176 34.8v8.816c0 2.475.155 5.104.464 7.888H0v-4.64zm75.168 0c0-17.632 2.63-34.336 7.888-50.112C88.315 31.707 96.203 15.776 106.72 0l22.272 10.208c-7.733 14.848-13.147 28.459-16.24 40.832-2.784 12.373-4.176 23.973-4.176 34.8v8.816c0 2.475.155 5.104.464 7.888H75.168v-4.64z" fill="#fff"/></svg>