<svg width="16" height="16" fill="none" xmlns="http://www.w3.org/2000/svg"><path fill-rule="evenodd" clip-rule="evenodd" d="M4 0a4 4 0 00-4 4v8a4 4 0 004 4h8a4 4 0 004-4V4a4 4 0 00-4-4H4zm8.913 10.235c.01.017.022.039.034.065a1.082 1.082 0 01.037.138.404.404 0 01-.003.177c-.014.052-.057.1-.13.143a.604.604 0 01-.307.065l-1.333.021a.584.584 0 01-.292-.026 1.272 1.272 0 01-.27-.114l-.105-.063a2.445 2.445 0 01-.364-.333 10.21 10.21 0 01-.357-.404 1.732 1.732 0 00-.317-.302c-.113-.081-.211-.108-.295-.08a.216.216 0 00-.041.018.665.665 0 00-.2.23c-.034.06-.063.15-.09.27-.025.12-.037.254-.033.403 0 .052-.006.1-.018.143a.347.347 0 01-.04.096l-.02.027a.415.415 0 01-.276.114h-.599c-.246.014-.5-.015-.76-.086a2.913 2.913 0 01-.685-.276 6.242 6.242 0 01-.536-.344 3.084 3.084 0 01-.367-.299l-.13-.125a3.434 3.434 0 01-.143-.156c-.061-.07-.185-.227-.373-.474a12.519 12.519 0 01-.551-.786 15.85 15.85 0 01-.638-1.099 17.168 17.168 0 01-.68-1.416.414.414 0 01-.031-.14c0-.038.005-.066.016-.084l.02-.03c.053-.067.151-.1.297-.1l1.427-.01a.549.549 0 01.203.078l.026.016a.343.343 0 01.125.166c.07.174.15.353.24.54a20.5 20.5 0 00.213.423l.083.151c.1.209.198.39.292.542.094.153.178.271.252.357.075.085.147.151.216.2.07.049.129.073.177.073a.39.39 0 00.14-.026.052.052 0 00.014-.011 1.014 1.014 0 00.075-.13.842.842 0 00.07-.244c.016-.101.033-.242.05-.422s.017-.398 0-.651a2.407 2.407 0 00-.047-.38.99.99 0 00-.073-.24l-.03-.062c-.088-.118-.235-.193-.443-.224-.024-.003-.033-.017-.027-.04a.26.26 0 01.053-.085.745.745 0 01.198-.156c.183-.09.598-.132 1.244-.125.285.004.519.026.703.068a.6.6 0 01.174.07.28.28 0 01.107.125.838.838 0 01.073.404c0 .1-.002.196-.005.286l-.005.119-.008.248c-.006.154-.008.298-.008.43l-.005.218a4.413 4.413 0 00-.003.25 1.871 1.871 0 00.018.211c.01.082.03.15.06.203.03.054.069.096.117.128l.089.02c.03.007.076-.012.135-.057.06-.045.125-.105.198-.18a2.7 2.7 0 00.27-.348c.108-.158.226-.345.355-.56.208-.36.394-.751.557-1.171a.356.356 0 01.052-.092.23.23 0 01.057-.054l.02-.016.027-.013.068-.016a.194.194 0 01.104-.002l1.5-.01a.978.978 0 01.139-.01.65.65 0 01.194.022c.086.027.14.055.161.086l.031.052c.08.222-.18.733-.781 1.531-.083.111-.196.259-.338.443-.271.347-.427.574-.47.682-.058.142-.034.283.074.421.025.031.064.074.118.13.074.076.175.175.304.297h.005l.005.006.005.005.01.01c.49.455.822.838.995 1.15z" fill="#66707B"/></svg>