<svg width="12" height="16" fill="none" xmlns="http://www.w3.org/2000/svg"><path d="M9.755 4.928l-.654.671A3.324 3.324 0 0110.115 8a3.32 3.32 0 01-1.014 2.4l.654.672A4.254 4.254 0 0011.052 8a4.25 4.25 0 00-1.297-3.072z" fill="#66707B"/><path d="M8.48 6.28l-.655.671c.286.278.444.65.444 1.049 0 .398-.158.77-.444 1.049l.654.672A2.383 2.383 0 009.206 8a2.38 2.38 0 00-.727-1.72zM4.706 0C3.631.043 2.653.941 1.955 2.53 1.305 4.006.948 5.948.948 8c0 2.076.365 4.035 1.028 5.517C2.692 15.118 3.69 16 4.785 16h2.67v-5.321H5.312a13.871 13.871 0 01-.247-2.655c0-.943.086-1.85.256-2.703h2.135V0h-2.75z" fill="#66707B"/></svg>