<svg width="32" height="32" fill="none" xmlns="http://www.w3.org/2000/svg"><g clip-path="url(#clip0)" fill="#fff"><path d="M1.2 28.078l6.47 3.72a1.72 1.72 0 001.617 0l6.74-3.828 6.74 3.828a1.72 1.72 0 001.617 0l6.47-3.72c.486-.27.809-.81.809-1.402v-7.872c0-.593-.323-1.133-.809-1.402l-6.74-3.882V5.324a1.61 1.61 0 00-.808-1.402l-6.47-3.72a1.719 1.719 0 00-1.618 0l-6.47 3.72a1.61 1.61 0 00-.809 1.402v8.25L1.2 17.402a1.61 1.61 0 00-.808 1.402v7.926c0 .539.323 1.078.809 1.348zm7.278-2.589l-.7-.7a1.72 1.72 0 00.161-.755v-.917l-.485-.97c-.054-.108-.054-.162-.054-.27v-1.024c0-.593.486-1.079 1.078-1.079.594 0 1.079.486 1.079 1.078v1.025c0 .108 0 .162-.054.216l-.485 1.024v.917c0 .27.054.485.162.755l-.702.7zm1.618-1.455v-.701l.377-.755c.108-.216.162-.485.162-.7v-1.026c0-1.186-.97-2.156-2.157-2.156-1.186 0-2.156.97-2.156 2.156v1.025c0 .27.054.485.162.7l.377.756v.7c0 .216-.162.432-.377.54l-1.726.485.324-4.206c.161-1.887 1.779-3.288 3.666-3.127a3.363 3.363 0 013.127 3.127l.324 4.206-1.726-.485c-.215-.108-.377-.324-.377-.54zm-5.93 2.696c0-.216.161-.432.377-.54l2.21-.647c.054 0 .162-.054.216-.054l.755.755-1.402 1.402v2.157l-2.157-1.24V26.73zm4.582 4.151a.49.49 0 01-.54 0l-.808-.485v-2.318l2.588-2.589c.054.054.162.054.216.054l2.21.648c.216.053.378.27.378.539v1.833L8.748 30.88zm9.436-24.586c-.54-.216-1.132-.216-1.564.108l-.593.323-.593-.323c-.485-.27-1.078-.324-1.564-.108V5.216c0-.323.216-.539.54-.539h3.234c.324 0 .54.216.54.54v1.078zM13.87 7.912c0-.377.324-.7.701-.7a1 1 0 01.378.107l1.132.701 1.132-.7c.324-.216.755-.109.917.215a.78.78 0 01.108.377V9.1a.49.49 0 01-.162.377l-1.348 1.348-.701.647-.593-.593-.593-.593-.755-.755a.489.489 0 01-.162-.377v-1.24h-.054zm6.47 7.172l-3.288 1.887.862-2.265c.216-.593.054-1.24-.377-1.725l-.755-.755 1.024-1.025 2.157.701c.216.054.377.27.377.486v2.696zm-4.313-2.103l.755.755c.162.161.216.377.108.593l-.863 2.318-.863-2.318a.75.75 0 01.108-.594l.755-.754zm-1.78-1.78l1.025 1.025-.755.755a1.685 1.685 0 00-.377 1.725l.862 2.265-3.289-1.887v-2.589c0-.215.162-.431.378-.485l2.157-.809zm9.598 19.68a.49.49 0 01-.54 0l-4.043-2.318v-2.588c0-.216.162-.432.378-.486l2.156-.7c.97.97 2.588.97 3.559 0l2.157.7c.215.054.377.27.377.486v2.588l-4.044 2.318zm-2.426-10.029v-.107l2.156-.432 2.157.432v1.402c0 .107-.054.215-.108.323l-.862 1.348c-.486.647-1.402.809-2.05.27-.107-.108-.215-.162-.269-.27l-.862-1.348c-.054-.108-.108-.216-.108-.323v-1.294h-.054zm4.313-1.186l-2.157-.431-2.156.431v-.97c0-.324.216-.54.539-.54h3.774v1.51zm4.583-1.348c.162.108.27.27.27.486v7.926a.566.566 0 01-.27.485l-1.348.7v-1.994c0-.701-.431-1.294-1.132-1.51l-1.833-.593.485-.755c.162-.27.27-.593.27-.916v-5.069h-4.853c-.917 0-1.617.701-1.617 1.618v3.45c0 .324.107.648.27.917l.484.755-1.833.593c-.593.216-1.024.809-1.024 1.51v1.995l-1.618-.917v-8.573c.108-.053.162-.053.27-.107l6.74-3.829 6.739 3.829zM9.287 4.84l6.47-3.72a.49.49 0 01.54 0l6.47 3.72c.162.108.27.27.27.485v8.25l-1.618.916v-1.995c0-.7-.432-1.294-1.132-1.51l-1.672-.538.162-.162c.323-.324.485-.701.485-1.132V5.216c0-.916-.7-1.617-1.618-1.617H14.41c-.916 0-1.617.701-1.617 1.617V9.1c0 .43.162.862.485 1.132l.162.162-1.671.539c-.701.215-1.133.809-1.133 1.51v1.994l-1.617-.916V5.324c0-.215.108-.377.27-.485zM1.47 18.804c0-.216.108-.378.27-.485l6.74-3.829 6.74 3.829c.107.053.161.053.269.107V27l-1.618.917V26.73c0-.486-.215-.917-.539-1.187l-.377-4.798c-.216-2.48-2.373-4.314-4.799-4.152-2.21.162-3.936 1.941-4.152 4.152l-.377 4.798c-.323.324-.54.755-.54 1.187v1.186L1.74 27.16a.567.567 0 01-.27-.485v-7.872z"/><path d="M10.096 26.783h1.617v1.079h-1.617v-1.079zm12.94-.539h1.078v1.079h-1.078v-1.079zm0 2.156h1.078v1.08h-1.078V28.4zm2.157-2.156h1.617v1.079h-1.617v-1.079zm-6.47-13.479H19.8v1.078h-1.078v-1.078z"/></g><defs><clipPath id="clip0"><path fill="#fff" d="M0 0h32v32H0z"/></clipPath></defs></svg>