<svg width="32" height="32" fill="none" xmlns="http://www.w3.org/2000/svg"><path d="M21 3h1v1h-1V3zm-5.159 2.552l.707-.708.708.708-.708.707-.707-.707zm12.134 13.665l-4.74 2.737a1.97 1.97 0 00-.861-.496l-6.811-1.825a2.512 2.512 0 00-1.094-.045L10 20.4v-.9a.5.5 0 00-.5-.5h-5a.5.5 0 00-.5.5v.5H1.5a.5.5 0 00-.5.5v9a.5.5 0 00.5.5H4v.5a.5.5 0 00.5.5h5a.5.5 0 00.5-.5v-1.442l7.737.86a2.507 2.507 0 001.633-.385l10.605-6.85a1.981 1.981 0 001-1.733 2 2 0 00-3-1.733zM2 29v-8h2v8H2zm7 1H5V20h4v10zm20.453-8.17l-10.627 6.863a1.51 1.51 0 01-.979.231L10 28.052v-6.635l4.65-.845a1.49 1.49 0 01.656.027l6.811 1.825a1 1 0 01-.518 1.932l-4.97-1.331a.502.502 0 00-.637.548.499.499 0 00.378.417l4.968 1.332a1.998 1.998 0 002.45-1.415 1.984 1.984 0 00-.025-1.103l4.71-2.72a1.002 1.002 0 01.981 1.746z" fill="#fff"/><path d="M30.5 8h-2.46a6.943 6.943 0 00-.148-.355l1.742-1.741a.5.5 0 000-.707l-2.83-2.83a.5.5 0 00-.707 0l-1.742 1.74c-.119-.053-.238-.1-.355-.147V1.5a.5.5 0 00-.5-.5h-4a.5.5 0 00-.5.5v2.46a6.958 6.958 0 00-.355.147l-1.741-1.74a.5.5 0 00-.707 0l-2.83 2.83a.5.5 0 000 .707l1.74 1.74c-.053.12-.1.239-.146.356H12.5a.5.5 0 00-.5.5v4a.5.5 0 00.5.5h2.46c.045.117.094.236.147.355l-1.74 1.742a.5.5 0 000 .707l2.83 2.83a.5.5 0 00.707 0l1.74-1.742c.12.054.239.1.356.148v2.46a.5.5 0 00.5.5h4a.5.5 0 00.5-.5v-2.46c.117-.046.236-.094.355-.148l1.741 1.742a.515.515 0 00.707 0l2.83-2.83a.5.5 0 000-.707l-1.74-1.742c.053-.12.1-.238.146-.355H30.5a.5.5 0 00.5-.5v-4a.5.5 0 00-.5-.5zm-.5 4h-2.315a.5.5 0 00-.476.35 6.17 6.17 0 01-.366.888.5.5 0 00.093.577l1.637 1.635-2.123 2.123-1.636-1.636a.5.5 0 00-.578-.094 6.158 6.158 0 01-.887.366.5.5 0 00-.35.476V19H20v-2.315a.5.5 0 00-.35-.476 6.158 6.158 0 01-.888-.366.5.5 0 00-.577.094l-1.635 1.636-2.123-2.123 1.637-1.636a.5.5 0 00.093-.578 6.158 6.158 0 01-.366-.888.5.5 0 00-.476-.35H13V9h2.315a.5.5 0 00.476-.35c.099-.305.221-.602.366-.888a.5.5 0 00-.093-.577L14.427 5.55l2.123-2.123 1.636 1.637a.5.5 0 00.578.093c.285-.145.582-.267.886-.365a.5.5 0 00.35-.477V2h3v2.315a.5.5 0 00.35.476c.305.099.602.221.888.366a.5.5 0 00.577-.093l1.635-1.637 2.123 2.123-1.637 1.636a.5.5 0 00-.093.577 6.2 6.2 0 01.366.889.5.5 0 00.476.35H30V12z" fill="#fff"/><path d="M21.5 6.5a4 4 0 100 8 4 4 0 000-8zm0 7a3 3 0 110-5.999 3 3 0 010 5.999zM7 29.5a1.5 1.5 0 100-3 1.5 1.5 0 000 3zm0-2a.5.5 0 110 1 .5.5 0 010-1zM14 10h1v1h-1v-1zm1.84 5.45l.707-.707.708.707-.708.707-.707-.707zM21 17h1v1h-1v-1zm4.739-1.549l.707-.707.707.707-.707.707-.707-.707zM28 10h1v1h-1v-1zm-2.26-4.447l.707-.707.707.707-.707.707-.707-.707z" fill="#fff"/></svg>