<svg width="16" height="16" fill="none" xmlns="http://www.w3.org/2000/svg"><path d="M9.406 8a1.406 1.406 0 11-2.812 0 1.406 1.406 0 012.812 0z" fill="#66707B"/><path d="M10.375 3.75h-4.75A1.877 1.877 0 003.75 5.625v4.75c0 1.034.841 1.875 1.875 1.875h4.75a1.877 1.877 0 001.875-1.875v-4.75a1.877 1.877 0 00-1.875-1.875zM8 10.344A2.346 2.346 0 015.656 8 2.346 2.346 0 018 5.656 2.346 2.346 0 0110.344 8 2.346 2.346 0 018 10.344zm2.688-4.563a.469.469 0 110-.937.469.469 0 010 .937z" fill="#66707B"/><path d="M11.781 0H4.22A4.224 4.224 0 000 4.219v7.562A4.224 4.224 0 004.219 16h7.562A4.224 4.224 0 0016 11.781V4.22A4.224 4.224 0 0011.781 0zm1.406 10.375a2.816 2.816 0 01-2.812 2.813h-4.75a2.816 2.816 0 01-2.813-2.813v-4.75a2.816 2.816 0 012.813-2.813h4.75a2.816 2.816 0 012.813 2.813v4.75z" fill="#66707B"/></svg>