<svg width="32" height="32" fill="none" xmlns="http://www.w3.org/2000/svg"><path d="M14 2.5h9.25c.69 0 1.25.56 1.25 1.25v8.501H27V3.75A3.754 3.754 0 0023.25 0H3.75A3.754 3.754 0 000 3.75v17.5A3.754 3.754 0 003.75 25h8.501v-2.5H3.75c-.69 0-1.25-.56-1.25-1.25V3.75c0-.69.56-1.25 1.25-1.25H14zm2 0L14 1l-2.5 1.5H11h5z" fill="#EF7F1A"/><path d="M23.25 14.5c-4.825 0-8.75 3.925-8.75 8.75S18.425 32 23.25 32 32 28.075 32 23.25s-3.925-8.75-8.75-8.75zm0 15A6.257 6.257 0 0117 23.25 6.257 6.257 0 0123.25 17a6.257 6.257 0 016.25 6.25 6.257 6.257 0 01-6.25 6.25zM5 15.213h1.523v-3.809H5v3.809zm11.477-7.617H18V3.787h-1.523v3.809zm-5.739 3.808h1.524V7.596h-1.524v3.808zM6.143 8.357h3.834v2.286H6.143a1.144 1.144 0 010-2.285zm10.714 2.286h-3.834V8.357h3.834a1.144 1.144 0 010 2.286zm0 3.808H7.285v-2.285h9.572a1.144 1.144 0 010 2.285zM6.143 4.549h9.572v2.285H6.143a1.144 1.144 0 010-2.285z" fill="#EF7F1A"/><path d="M26.97 23.922c.019-.14.044-.278.044-.422 0-.145-.026-.283-.044-.422l.844-.614a.438.438 0 00.123-.584l-.758-1.26a.478.478 0 00-.587-.19l-.972.393a3.515 3.515 0 00-.768-.438l-.13-.99a.463.463 0 00-.464-.395h-1.515a.462.462 0 00-.465.394l-.13.991a3.531 3.531 0 00-.767.438l-.971-.393a.478.478 0 00-.589.19l-.757 1.26a.439.439 0 00.122.584l.845.614c-.019.14-.045.277-.045.422 0 .145.026.282.044.422l-.844.614a.439.439 0 00-.123.584l.758 1.26c.118.196.37.278.587.19l.972-.394c.237.173.49.326.768.438l.13.99c.03.227.228.396.464.396h1.515c.236 0 .436-.17.465-.394l.13-.991c.278-.112.53-.266.767-.438l.971.393c.218.088.47.007.588-.19l.758-1.261a.44.44 0 00-.122-.584l-.844-.613zM23.5 25.3c-1.035 0-1.874-.806-1.874-1.8s.838-1.8 1.874-1.8c1.035 0 1.874.806 1.874 1.8s-.838 1.8-1.874 1.8z" fill="#EF7F1A"/></svg>