<svg width="32" height="32" fill="none" xmlns="http://www.w3.org/2000/svg"><path d="M13.5 9.752l5 3.334V2.5h4.75c.69 0 1.25.56 1.25 1.25v8.501H27V3.75A3.754 3.754 0 0023.25 0H3.75A3.754 3.754 0 000 3.75v19.5A3.754 3.754 0 003.75 27h8.501v-2.5H3.75c-.69 0-1.25-.56-1.25-1.25V3.75c0-.69.56-1.25 1.25-1.25H8.5v10.586l5-3.334zM16 8.414l-2.5-1.666L11 8.414V2.5h5v5.914zm10.116 11.452L22 23.982l-1.616-1.616-1.768 1.768L22 27.518l5.884-5.884-1.768-1.768z" fill="#EF7F1A"/><path d="M23.25 14.5c-4.825 0-8.75 3.925-8.75 8.75S18.425 32 23.25 32 32 28.075 32 23.25s-3.925-8.75-8.75-8.75zm0 15A6.257 6.257 0 0117 23.25 6.257 6.257 0 0123.25 17a6.257 6.257 0 016.25 6.25 6.257 6.257 0 01-6.25 6.25z" fill="#EF7F1A"/></svg>