<svg width="16" height="16" viewBox="0 0 16 16" fill="none" xmlns="http://www.w3.org/2000/svg">
<path d="M13.6571 2.34293C10.5329 -0.780965 5.4674 -0.781313 2.34281 2.34293C-0.781435 5.46717 -0.781087 10.5327 2.34281 13.6573C5.46705 16.7808 10.5325 16.7812 13.6571 13.6573C16.781 10.5327 16.7807 5.46752 13.6571 2.34293ZM9.04313 11.4784C9.04313 12.0548 8.57599 12.5219 7.99963 12.5219C7.42327 12.5219 6.95612 12.0548 6.95612 11.4784V7.30443C6.95612 6.72807 7.42327 6.26093 7.99963 6.26093C8.57599 6.26093 9.04313 6.72807 9.04313 7.30443V11.4784ZM7.98119 5.52074C7.38013 5.52074 6.97943 5.09499 6.99195 4.56941C6.97943 4.01844 7.38013 3.60556 7.99336 3.60556C8.60694 3.60556 8.99513 4.01879 9.008 4.56941C9.00765 5.09499 8.60729 5.52074 7.98119 5.52074Z" fill="#66707B"/>
</svg>
