<svg width="24" height="24" viewBox="0 0 24 24" fill="none" xmlns="http://www.w3.org/2000/svg">
<path d="M22.125 21.1875C22.125 21.7053 21.7053 22.125 21.1875 22.125H20.25V23.0625C20.25 23.5803 19.8303 24 19.3125 24C18.7947 24 18.375 23.5803 18.375 23.0625V22.125H17.4375C16.9197 22.125 16.5 21.7053 16.5 21.1875C16.5 20.6697 16.9197 20.25 17.4375 20.25H18.375V19.3125C18.375 18.7947 18.7947 18.375 19.3125 18.375C19.8303 18.375 20.25 18.7947 20.25 19.3125V20.25H21.1875C21.7053 20.25 22.125 20.6697 22.125 21.1875ZM22.125 6.5625V15.5625C22.125 16.0803 21.7053 16.5 21.1875 16.5C20.6697 16.5 20.25 16.0803 20.25 15.5625V7.5H18.375V10.3125C18.375 10.8303 17.9553 11.25 17.4375 11.25C16.9197 11.25 16.5 10.8303 16.5 10.3125V7.5H7.5V10.3125C7.5 10.8303 7.08028 11.25 6.5625 11.25C6.04472 11.25 5.625 10.8303 5.625 10.3125V7.5H3.75V22.125H13.6875C14.2053 22.125 14.625 22.5447 14.625 23.0625C14.625 23.5803 14.2053 24 13.6875 24H2.8125C2.29472 24 1.875 23.5803 1.875 23.0625V6.5625C1.875 6.04472 2.29472 5.625 2.8125 5.625H5.66934C6.04177 2.46202 8.73858 0 12 0C15.2614 0 17.9582 2.46202 18.3307 5.625H21.1875C21.7053 5.625 22.125 6.04472 22.125 6.5625ZM16.4371 5.625C16.079 3.49945 14.2258 1.875 12 1.875C9.77423 1.875 7.92098 3.49945 7.56286 5.625H16.4371Z" fill="#66707B"/>
</svg>
