<svg width="16" height="16" viewBox="0 0 16 16" fill="none" xmlns="http://www.w3.org/2000/svg">
<path d="M15.6198 5.56509C15.5755 5.42706 15.4472 5.33331 15.3021 5.33331H10.8919C10.7728 5.33331 10.6621 5.39712 10.6029 5.50062C10.5436 5.60416 10.5436 5.7314 10.6042 5.83462L14.2695 12.125C14.3288 12.2266 14.4368 12.2894 14.5547 12.2904C14.5553 12.2904 14.5566 12.2904 14.5573 12.2904C14.6738 12.2904 14.7819 12.2295 14.8424 12.1296C15.5996 10.8773 16 9.44953 16 8C16 7.17253 15.8717 6.35353 15.6198 5.56509Z" fill="#66707B"/>
<path d="M7.14321 4.49965C7.20311 4.60284 7.31314 4.66665 7.43227 4.66665H14.7337C14.8515 4.66665 14.9603 4.60446 15.0202 4.50356C15.0807 4.40231 15.0827 4.27699 15.026 4.17381C13.9154 2.13703 11.9805 0.68487 9.71746 0.189432C9.57292 0.158838 9.4297 0.222651 9.35742 0.347651L7.14389 4.16603C7.08399 4.26918 7.08399 4.39646 7.14321 4.49965Z" fill="#66707B"/>
<path d="M11.7618 9.14589C11.7026 9.04336 11.5925 8.9802 11.4741 8.9802C11.4741 8.9802 11.4741 8.9802 11.4734 8.9802C11.3549 8.9802 11.2455 9.04367 11.1857 9.14623L7.50791 15.489C7.44931 15.5909 7.448 15.7159 7.50532 15.8184C7.5626 15.9213 7.66938 15.9861 7.78656 15.9896L7.86144 15.9939C7.907 15.9971 7.95322 16 8.0001 16C10.2566 16 12.422 15.0323 13.9408 13.3451C14.0372 13.2374 14.0535 13.0795 13.9806 12.9545L11.7618 9.14589Z" fill="#66707B"/>
<path d="M5.40431 10.5003C5.46422 10.3974 5.46422 10.2705 5.40497 10.1673L1.76303 3.8255C1.70444 3.72363 1.59637 3.66013 1.47919 3.65819C1.35744 3.64322 1.25131 3.71613 1.19012 3.81672C0.411469 5.08134 0 6.52763 0 7.99997C0 8.82744 0.12825 9.64647 0.380219 10.4349C0.4245 10.5729 0.55275 10.6667 0.697937 10.6667H5.11591C5.23503 10.6666 5.34506 10.6032 5.40431 10.5003Z" fill="#66707B"/>
<path d="M8.85676 11.5003C8.79685 11.3971 8.68682 11.3333 8.5677 11.3333H1.26626C1.14842 11.3333 1.0397 11.3955 0.979793 11.4964C0.91923 11.5976 0.917293 11.723 0.973918 11.8261C2.08461 13.8629 4.01948 15.3151 6.28251 15.8105C6.3066 15.8157 6.3307 15.8183 6.35413 15.8183C6.47132 15.8183 6.58201 15.7565 6.64254 15.6523L8.85607 11.8339C8.91601 11.7308 8.91601 11.6035 8.85676 11.5003Z" fill="#66707B"/>
<path d="M4.2539 6.82422C4.31315 6.92741 4.42318 6.99122 4.5423 6.99153H4.54296C4.66212 6.99153 4.77149 6.92838 4.83137 6.8255L8.49218 0.511063C8.55077 0.409188 8.55208 0.284187 8.49477 0.181625C8.43749 0.07875 8.33071 0.0139688 8.21352 0.0104063L8.13865 0.0061875C8.09308 0.0029375 8.04686 0 7.99999 0C5.76693 0 3.61718 0.950844 2.1009 2.60906C2.00324 2.71616 1.98565 2.87403 2.05793 3L4.2539 6.82422Z" fill="#66707B"/>
</svg>
