<svg width="16" height="16" viewBox="0 0 16 16" fill="none" xmlns="http://www.w3.org/2000/svg">
<g clip-path="url(#clip0)">
<path d="M8.00003 3.25011C5.36726 3.25011 3.22827 5.39264 3.22827 8.02187C3.22827 10.651 5.3708 12.7935 8.00003 12.7935C10.6291 12.7935 12.7716 10.651 12.7716 8.02187C12.7716 5.39264 10.6328 3.25011 8.00003 3.25011V3.25011ZM10.3931 6.87797L7.51334 9.59415C7.46014 9.64636 7.38822 9.67515 7.31361 9.67416C7.23559 9.67487 7.16069 9.64338 7.10665 9.58692L5.59961 8.04002C5.48925 7.92541 5.49166 7.74313 5.60529 7.63163C5.71877 7.52014 5.90091 7.52085 6.01368 7.63319L7.32099 8.97681L9.99362 6.45667C10.1099 6.34631 10.2936 6.35128 10.404 6.46759C10.5144 6.58391 10.5094 6.76761 10.3931 6.87797V6.87797Z" fill="#66707B"/>
<path d="M14.8524 9.76122L16 8.02183L14.8524 6.2823C14.8188 6.23067 14.8022 6.16967 14.8052 6.10797L14.9214 4.02359L13.0658 3.08311C13.0109 3.05545 12.9664 3.01091 12.9387 2.95601L12.0018 1.10031L9.91742 1.21648C9.85572 1.21946 9.79472 1.20301 9.74309 1.16925L8.00001 0.0218048L6.26049 1.16925C6.20885 1.20301 6.14785 1.21946 6.08629 1.21648L4.00178 1.10031L3.0613 2.95601C3.03364 3.01091 2.9891 3.05545 2.9342 3.08311L1.0785 4.0199L1.19468 6.10442C1.19765 6.16598 1.1812 6.22698 1.14758 6.27876L0 8.02183L1.14758 9.76122C1.1812 9.813 1.19765 9.87385 1.19468 9.93556L1.0785 12.0199L2.9342 12.9569C2.9891 12.9845 3.03364 13.0291 3.0613 13.084L3.99823 14.9397L6.0826 14.8234H6.09707C6.15367 14.8241 6.20913 14.8404 6.25694 14.8706L7.99632 16.0182L9.73585 14.8706C9.78749 14.837 9.84848 14.8205 9.91005 14.8234L11.9946 14.9397L12.9315 13.084C12.9592 13.0291 13.0037 12.9845 13.0586 12.9569L14.9142 12.0199L14.798 9.93556C14.8011 9.87371 14.8198 9.81371 14.8524 9.76122V9.76122ZM8.00001 13.3745C5.04765 13.3745 2.64724 10.9741 2.64724 8.02183C2.64724 5.06947 5.04765 2.66905 8.00001 2.66905C10.9524 2.66905 13.3526 5.06947 13.3526 8.02183C13.3526 10.9741 10.9524 13.3745 8.00001 13.3745V13.3745Z" fill="#66707B"/>
</g>
<defs>
<clipPath id="clip0">
<rect width="16" height="16" fill="white"/>
</clipPath>
</defs>
</svg>
