<svg width="12" height="16" viewBox="0 0 12 16" fill="none" xmlns="http://www.w3.org/2000/svg">
<path d="M9.75477 4.92761L9.10083 5.59939C9.75455 6.23577 10.1146 7.08834 10.1146 8.00003C10.1146 8.91172 9.75455 9.76431 9.10083 10.4007L9.75477 11.0724C10.5914 10.2581 11.0521 9.1669 11.0521 8.00003C11.0521 6.83315 10.5914 5.74199 9.75477 4.92761Z" fill="#66707B"/>
<path d="M8.47938 6.27942L7.82544 6.9512C8.11125 7.22942 8.26869 7.60189 8.26869 8.00002C8.26869 8.39815 8.11128 8.77059 7.82544 9.04884L8.47938 9.72062C8.94806 9.26437 9.20619 8.65334 9.20619 8.00002C9.20619 7.3467 8.94806 6.73567 8.47938 6.27942Z" fill="#66707B"/>
<path d="M4.70644 0.000375C3.63075 0.042875 2.65347 0.94125 1.95462 2.53003C1.3055 4.00575 0.947998 5.94837 0.947998 8C0.947998 10.0762 1.3129 12.0354 1.9755 13.5168C2.69175 15.1181 3.68965 16 4.78537 16H7.4559V10.6786H5.31172C5.14762 9.83881 5.06456 8.94756 5.06456 8.0235C5.06456 7.08119 5.15065 6.17403 5.32078 5.32137H7.4559V0H4.72497L4.70644 0.000375Z" fill="#66707B"/>
</svg>
