<svg width="32" height="32" viewBox="0 0 32 32" fill="none" xmlns="http://www.w3.org/2000/svg">
<g clip-path="url(#clip0)">
<path d="M1.19963 28.0776L7.66972 31.7979C8.15519 32.0674 8.80204 32.0674 9.28725 31.7979L16.0269 27.9697L22.7666 31.7979C23.2521 32.0674 23.8989 32.0674 24.3841 31.7979L30.8542 28.0776C31.3397 27.808 31.663 27.2689 31.663 26.6757V18.8037C31.663 18.2106 31.3397 17.6714 30.8542 17.4018L24.1145 13.5199V5.32435C24.1145 4.7312 23.7912 4.19203 23.3058 3.92244L16.8357 0.20219C16.3505 -0.0673968 15.7036 -0.0673968 15.2182 0.20219L8.74807 3.92244C8.26287 4.19203 7.93931 4.7312 7.93931 5.32435V13.5736L1.19963 17.4018C0.714426 17.6714 0.390869 18.2106 0.390869 18.8037V26.7297C0.390869 27.2689 0.714426 27.808 1.19963 28.0776ZM8.47849 25.4894L7.77766 24.7886C7.8856 24.573 7.93931 24.3034 7.93931 24.0338V23.1171L7.45411 22.1467C7.40014 22.0388 7.40014 21.9848 7.40014 21.8771V20.8525C7.40014 20.2596 7.8856 19.7741 8.47849 19.7741C9.07163 19.7741 9.55683 20.2596 9.55683 20.8525V21.8771C9.55683 21.9848 9.55683 22.0388 9.50313 22.0927L9.01766 23.1171V24.0338C9.01766 24.3034 9.07163 24.519 9.17957 24.7886L8.47849 25.4894ZM10.096 24.0338V23.3327L10.4735 22.5779C10.5815 22.3623 10.6352 22.0927 10.6352 21.8771V20.8525C10.6352 19.6664 9.66477 18.6958 8.47849 18.6958C7.29246 18.6958 6.32179 19.6664 6.32179 20.8525V21.8771C6.32179 22.1467 6.37576 22.3623 6.4837 22.5779L6.86096 23.3327V24.0338C6.86096 24.2494 6.69931 24.465 6.4837 24.573L4.75823 25.0582L5.08179 20.8525C5.24344 18.9654 6.86096 17.5637 8.74807 17.7254C10.4196 17.8333 11.7675 19.1812 11.8754 20.8525L12.199 25.0582L10.4735 24.573C10.2579 24.465 10.096 24.2494 10.096 24.0338ZM4.16509 26.7297C4.16509 26.5138 4.327 26.2982 4.54262 26.1905L6.75328 25.5434C6.80725 25.5434 6.91493 25.4894 6.9689 25.4894L7.72369 26.2442L6.32179 27.6461V29.8028L4.16509 28.5628V26.7297ZM8.74807 30.8812C8.58642 30.9891 8.37081 30.9891 8.2089 30.8812L7.40014 30.396V28.0776L9.98833 25.4894C10.0423 25.5434 10.15 25.5434 10.2039 25.5434L12.4146 26.1905C12.6302 26.2442 12.7919 26.4601 12.7919 26.7297V28.5628L8.74807 30.8812ZM18.1836 6.29476C17.6444 6.07914 17.0516 6.07914 16.6201 6.4027L16.0269 6.72625L15.434 6.4027C14.9486 6.13311 14.3557 6.07914 13.8702 6.29476V5.21641C13.8702 4.89311 14.0861 4.67723 14.4094 4.67723H17.6444C17.968 4.67723 18.1836 4.89311 18.1836 5.21641V6.29476ZM13.8702 7.91228C13.8702 7.53501 14.1938 7.21146 14.5713 7.21146C14.679 7.21146 14.8409 7.26543 14.9486 7.3194L16.0809 8.02022L17.2132 7.3194C17.5368 7.10352 17.968 7.21146 18.1299 7.53501C18.1836 7.64269 18.2376 7.75063 18.2376 7.91228V9.09857C18.2376 9.26021 18.1836 9.36815 18.0759 9.4761L16.728 10.824L16.0269 11.4709L15.434 10.8777L14.8409 10.2849L14.0861 9.5298C13.9782 9.42212 13.9242 9.31419 13.9242 9.15254V7.91228H13.8702ZM20.3403 15.0835L17.0516 16.9706L17.914 14.7059C18.1299 14.1128 17.968 13.4659 17.5368 12.9807L16.782 12.2257L17.8064 11.2013L19.9631 11.9024C20.1787 11.9561 20.3403 12.172 20.3403 12.3876V15.0835ZM16.0269 12.9807L16.782 13.7355C16.9436 13.8972 16.9976 14.1128 16.8897 14.3287L16.0269 16.647L15.1645 14.3287C15.1105 14.1128 15.1645 13.8972 15.2721 13.7355L16.0269 12.9807ZM14.2478 11.2013L15.2721 12.2257L14.5173 12.9807C14.0861 13.412 13.9242 14.1128 14.1398 14.7059L15.0025 16.9706L11.7135 15.0835V12.4953C11.7135 12.2796 11.8754 12.064 12.0911 12.0101L14.2478 11.2013ZM23.845 30.8812C23.6833 30.9891 23.4677 30.9891 23.3058 30.8812L19.262 28.5628V25.9746C19.262 25.759 19.4239 25.5434 19.6395 25.4894L21.7962 24.7886C22.7666 25.759 24.3841 25.759 25.3548 24.7886L27.5115 25.4894C27.7271 25.5434 27.8888 25.759 27.8888 25.9746V28.5628L23.845 30.8812ZM21.4187 20.8525V20.7448L23.5754 20.3133L25.7321 20.7448V22.1467C25.7321 22.2544 25.6784 22.3623 25.6244 22.47L24.7617 23.8179C24.2765 24.465 23.3598 24.6267 22.7129 24.0875C22.605 23.9798 22.497 23.9259 22.4433 23.8179L21.5806 22.47C21.5266 22.3623 21.4726 22.2544 21.4726 22.1467V20.8525H21.4187ZM25.7321 19.6664L23.5754 19.2349L21.4187 19.6664V18.6958C21.4187 18.3725 21.6346 18.1566 21.9578 18.1566H25.7321V19.6664ZM30.315 18.3185C30.477 18.4262 30.5846 18.5881 30.5846 18.8037V26.7297C30.5846 26.9453 30.477 27.1069 30.315 27.2149L28.9671 27.9157V25.9209C28.9671 25.2198 28.5359 24.6267 27.8351 24.4111L26.0017 23.8179L26.4871 23.0631C26.6488 22.7935 26.7567 22.47 26.7567 22.1467V17.0782H21.9041C20.9874 17.0782 20.2866 17.7793 20.2866 18.6958V22.1467C20.2866 22.47 20.3943 22.7935 20.5562 23.0631L21.0414 23.8179L19.2083 24.4111C18.6151 24.6267 18.1836 25.2198 18.1836 25.9209V27.9157L16.5661 26.9993V18.4262C16.674 18.3725 16.728 18.3725 16.8357 18.3185L23.5754 14.4903L30.315 18.3185ZM9.28725 4.83914L15.7573 1.11889C15.9192 1.01095 16.1349 1.01095 16.2965 1.11889L22.7666 4.83914C22.9285 4.94682 23.0362 5.10873 23.0362 5.32435V13.5736L21.4187 14.4903V12.4953C21.4187 11.7944 20.9874 11.2013 20.2866 10.9857L18.6151 10.4465L18.7768 10.2849C19.1003 9.9613 19.262 9.58377 19.262 9.15254V5.21641C19.262 4.29997 18.5612 3.59888 17.6444 3.59888H14.4094C13.493 3.59888 12.7919 4.29997 12.7919 5.21641V9.09857C12.7919 9.5298 12.9538 9.9613 13.2773 10.2309L13.439 10.3925L11.7675 10.9317C11.0667 11.1473 10.6352 11.7405 10.6352 12.4416V14.4363L9.01766 13.5199V5.32435C9.01766 5.10873 9.1256 4.94682 9.28725 4.83914ZM1.46922 18.8037C1.46922 18.5881 1.57716 18.4262 1.73881 18.3185L8.47849 14.4903L15.2182 18.3185C15.3261 18.3725 15.3801 18.3725 15.4878 18.4262V26.9993L13.8702 27.9157V26.7297C13.8702 26.2442 13.6546 25.813 13.3311 25.5434L12.9538 20.7448C12.7382 18.2645 10.5815 16.4314 8.15519 16.593C5.94452 16.7549 4.21906 18.5341 4.00344 20.7448L3.62592 25.5434C3.30262 25.8669 3.08674 26.2982 3.08674 26.7297V27.9157L1.73881 27.1609C1.57716 27.053 1.46922 26.8913 1.46922 26.6757V18.8037Z" fill="white"/>
<path d="M10.0959 26.7833H11.7135V27.8617H10.0959V26.7833Z" fill="white"/>
<path d="M23.0361 26.2443H24.1145V27.3226H23.0361V26.2443Z" fill="white"/>
<path d="M23.0361 28.4009H24.1145V29.4792H23.0361V28.4009Z" fill="white"/>
<path d="M25.1929 26.2443H26.8104V27.3226H25.1929V26.2443Z" fill="white"/>
<path d="M18.7227 12.7648H19.801V13.8431H18.7227V12.7648Z" fill="white"/>
</g>
<defs>
<clipPath id="clip0">
<rect width="32" height="32" fill="white"/>
</clipPath>
</defs>
</svg>
