<svg width="17" height="16" viewBox="0 0 17 16" fill="none" xmlns="http://www.w3.org/2000/svg">
<path d="M10.9261 0.941406H5.63198C3.1958 0.941406 1.22021 2.91699 1.22021 5.35317V10.6473C1.22021 13.0835 3.1958 15.0591 5.63198 15.0591H10.9261C13.3623 15.0591 15.3379 13.0835 15.3379 10.6473V5.35317C15.3379 2.91699 13.3623 0.941406 10.9261 0.941406ZM14.0143 10.6473C14.0143 12.3502 12.629 13.7355 10.9261 13.7355H5.63198C3.92904 13.7355 2.54374 12.3502 2.54374 10.6473V5.35317C2.54374 3.65023 3.92904 2.26494 5.63198 2.26494H10.9261C12.629 2.26494 14.0143 3.65023 14.0143 5.35317V10.6473Z" fill="#282A2E"/>
<path d="M8.27892 4.4707C6.32981 4.4707 4.74951 6.051 4.74951 8.00011C4.74951 9.94923 6.32981 11.5295 8.27892 11.5295C10.228 11.5295 11.8083 9.94923 11.8083 8.00011C11.8083 6.051 10.228 4.4707 8.27892 4.4707ZM8.27892 10.206C7.06304 10.206 6.07304 9.216 6.07304 8.00011C6.07304 6.78335 7.06304 5.79423 8.27892 5.79423C9.49481 5.79423 10.4848 6.78335 10.4848 8.00011C10.4848 9.216 9.49481 10.206 8.27892 10.206Z" fill="#282A2E"/>
<path d="M12.0728 4.67642C12.3326 4.67642 12.5431 4.46587 12.5431 4.20613C12.5431 3.9464 12.3326 3.73584 12.0728 3.73584C11.8131 3.73584 11.6025 3.9464 11.6025 4.20613C11.6025 4.46587 11.8131 4.67642 12.0728 4.67642Z" fill="#282A2E"/>
</svg>
