<svg width="17" height="10" viewBox="0 0 17 10" fill="none" xmlns="http://www.w3.org/2000/svg">
<path d="M8.65428 10C10.969 10 10.1436 8.53467 10.3223 8.11333C10.3196 7.79867 10.317 7.496 10.3276 7.312C10.4743 7.35333 10.8203 7.52867 11.535 8.22333C12.6383 9.33667 12.9203 10 13.8116 10H15.4523C15.9723 10 16.243 9.78467 16.3783 9.604C16.509 9.42933 16.637 9.12267 16.497 8.64533C16.131 7.496 13.9963 5.51133 13.8636 5.302C13.8836 5.26333 13.9156 5.212 13.9323 5.18533H13.931C14.3523 4.62867 15.9603 2.21933 16.197 1.25533C16.1976 1.254 16.1983 1.252 16.1983 1.25C16.3263 0.81 16.209 0.524667 16.0876 0.363333C15.905 0.122 15.6143 0 15.2216 0H13.581C13.0316 0 12.615 0.276667 12.4043 0.781333C12.0516 1.678 11.061 3.522 10.3183 4.17467C10.2956 3.25 10.311 2.544 10.323 2.01933C10.347 0.996 10.4243 0 9.36228 0H6.78362C6.11828 0 5.48162 0.726667 6.17095 1.58933C6.77362 2.34533 6.38762 2.76667 6.51762 4.864C6.01095 4.32067 5.10962 2.85333 4.47228 0.978C4.29362 0.470667 4.02295 0.000666618 3.26095 0.000666618H1.62028C0.954951 0.000666618 0.557617 0.363333 0.557617 0.970667C0.557617 2.33467 3.57695 10 8.65428 10ZM3.26095 1.00067C3.40562 1.00067 3.42028 1.00067 3.52762 1.30533C4.18028 3.22733 5.64428 6.07133 6.71362 6.07133C7.51695 6.07133 7.51695 5.248 7.51695 4.938L7.51628 2.47C7.47228 1.65333 7.17495 1.24667 6.97962 1L9.31828 1.00267C9.31962 1.014 9.30495 3.73267 9.32495 4.39133C9.32495 5.32667 10.0676 5.86267 11.227 4.68933C12.4503 3.30867 13.2963 1.24467 13.3303 1.16067C13.3803 1.04067 13.4236 1 13.581 1H15.2216H15.2283C15.2276 1.002 15.2276 1.004 15.227 1.006C15.077 1.706 13.5963 3.93667 13.101 4.62933C13.093 4.64 13.0856 4.65133 13.0783 4.66267C12.8603 5.01867 12.683 5.412 13.1083 5.96533H13.109C13.1476 6.012 13.2483 6.12133 13.395 6.27333C13.851 6.744 15.415 8.35333 15.5536 8.99333C15.4616 9.008 15.3616 8.99733 13.8116 9.00067C13.4816 9.00067 13.2236 8.50733 12.239 7.514C11.3536 6.65267 10.779 6.30067 10.2556 6.30067C9.23962 6.30067 9.31362 7.12533 9.32295 8.12267C9.32628 9.204 9.31962 8.862 9.32695 8.93C9.26762 8.95333 9.09762 9 8.65428 9C4.42428 9 1.66962 2.286 1.56362 1.00267C1.60028 0.999334 2.10495 1.00133 3.26095 1.00067Z" fill="#282A2E"/>
</svg>
