<svg width="10" height="16" viewBox="0 0 10 16" fill="none" xmlns="http://www.w3.org/2000/svg">
<path d="M6.08031 15.9688H3.51304C3.08423 15.9688 2.7354 15.6206 2.7354 15.1926V9.41333H1.2376C0.808787 9.41333 0.459961 9.06506 0.459961 8.63721V6.16077C0.459961 5.73279 0.808787 5.38464 1.2376 5.38464H2.7354V4.14453C2.7354 2.91492 3.12227 1.86877 3.85404 1.11938C4.58912 0.366577 5.61639 -0.03125 6.82481 -0.03125L8.78274 -0.0280762C9.21082 -0.0273438 9.55903 0.320801 9.55903 0.748047V3.04736C9.55903 3.47534 9.21033 3.82349 8.78164 3.82349L7.46339 3.82397C7.06136 3.82397 6.95898 3.90442 6.93709 3.92908C6.90101 3.96997 6.85808 4.08557 6.85808 4.40479V5.38452H8.68256C8.81992 5.38452 8.95299 5.41833 9.06735 5.48206C9.31405 5.61963 9.46742 5.87976 9.46742 6.16089L9.46644 8.63733C9.46644 9.06506 9.11762 9.41321 8.6888 9.41321H6.85808V15.1926C6.85808 15.6206 6.50913 15.9688 6.08031 15.9688ZM3.67523 15.0308H5.91813V8.99341C5.91813 8.70764 6.15113 8.47522 6.43733 8.47522H8.52662L8.52748 6.32263H6.43721C6.15101 6.32263 5.91813 6.09021 5.91813 5.80444V4.40479C5.91813 4.03833 5.95544 3.62158 6.23259 3.30835C6.56747 2.92969 7.09524 2.88599 7.46314 2.88599L8.61921 2.8855V0.909668L6.82408 0.906738C4.88205 0.906738 3.67523 2.14746 3.67523 4.14453V5.80444C3.67523 6.09009 3.44235 6.32263 3.15615 6.32263H1.39978V8.47522H3.15615C3.44235 8.47522 3.67523 8.70764 3.67523 8.99341V15.0308ZM8.7809 0.909912H8.78102H8.7809Z" fill="#282A2E"/>
</svg>
