<svg width="32" height="32" viewBox="0 0 32 32" fill="none" xmlns="http://www.w3.org/2000/svg">
<path d="M21 3H22V4H21V3Z" fill="white"/>
<path d="M15.8413 5.55151L16.5484 4.8444L17.2555 5.55151L16.5484 6.25862L15.8413 5.55151Z" fill="white"/>
<path d="M27.975 19.2169L23.2345 21.9544C22.9947 21.7183 22.6985 21.5475 22.374 21.4584L15.563 19.6334C15.2061 19.5381 14.8325 19.5228 14.469 19.5884L10 20.3999V19.4999C10 19.3673 9.94732 19.2401 9.85355 19.1464C9.75979 19.0526 9.63261 18.9999 9.5 18.9999H4.5C4.36739 18.9999 4.24021 19.0526 4.14645 19.1464C4.05268 19.2401 4 19.3673 4 19.4999V19.9999H1.5C1.36739 19.9999 1.24021 20.0526 1.14645 20.1464C1.05268 20.2401 1 20.3673 1 20.4999V29.4999C1 29.6325 1.05268 29.7597 1.14645 29.8535C1.24021 29.9472 1.36739 29.9999 1.5 29.9999H4V30.4999C4 30.6325 4.05268 30.7597 4.14645 30.8535C4.24021 30.9472 4.36739 30.9999 4.5 30.9999H9.5C9.63261 30.9999 9.75979 30.9472 9.85355 30.8535C9.94732 30.7597 10 30.6325 10 30.4999V29.0584L17.737 29.9184C18.3092 29.9813 18.8857 29.8453 19.3695 29.5334L29.975 22.6834C30.2805 22.5093 30.5341 22.257 30.7099 21.9524C30.8856 21.6479 30.9771 21.302 30.975 20.9504C30.9752 20.5993 30.8829 20.2542 30.7074 19.9501C30.5319 19.6459 30.2795 19.3933 29.9754 19.2176C29.6713 19.042 29.3264 18.9495 28.9752 18.9495C28.6241 18.9494 28.2791 19.0418 27.975 19.2174V19.2169ZM2 28.9999V20.9999H4V28.9999H2ZM9 29.9999H5V19.9999H9V29.9999ZM29.4535 21.8299L18.8265 28.6934C18.536 28.8801 18.1903 28.9616 17.847 28.9244L10 28.0524V21.4174L14.65 20.5724C14.8679 20.5324 15.092 20.5414 15.306 20.5989L22.117 22.4239C22.3732 22.4926 22.5916 22.6603 22.7242 22.89C22.8568 23.1197 22.8927 23.3927 22.824 23.6489C22.7553 23.9051 22.5877 24.1235 22.3579 24.2561C22.1282 24.3887 21.8552 24.4246 21.599 24.3559L16.6295 23.0249C16.5655 23.0059 16.4983 22.9999 16.4319 23.0072C16.3655 23.0146 16.3013 23.0351 16.243 23.0677C16.1847 23.1003 16.1335 23.1443 16.0924 23.197C16.0514 23.2497 16.0213 23.3101 16.004 23.3746C15.9867 23.4391 15.9825 23.5065 15.9917 23.5726C16.0008 23.6388 16.0231 23.7025 16.0573 23.7599C16.0915 23.8173 16.1368 23.8672 16.1906 23.9068C16.2444 23.9464 16.3055 23.9749 16.3705 23.9904L21.3385 25.3219C21.5922 25.39 21.8569 25.4074 22.1174 25.3731C22.3779 25.3388 22.629 25.2536 22.8565 25.1222C23.0841 24.9909 23.2835 24.816 23.4434 24.6075C23.6033 24.3991 23.7206 24.1612 23.7885 23.9074C23.8845 23.5447 23.8756 23.1623 23.763 22.8044L28.473 20.0844C28.5876 20.02 28.7138 19.9788 28.8443 19.9631C28.9749 19.9475 29.1072 19.9577 29.2338 19.9932C29.3604 20.0287 29.4787 20.0888 29.5821 20.17C29.6855 20.2512 29.7718 20.3521 29.8363 20.4667C29.9007 20.5813 29.9419 20.7074 29.9575 20.838C29.9732 20.9685 29.963 21.1009 29.9275 21.2275C29.892 21.354 29.8319 21.4724 29.7507 21.5758C29.6694 21.6791 29.5686 21.7655 29.454 21.8299H29.4535Z" fill="white"/>
<path d="M30.5 8H28.0395C27.9945 7.8825 27.946 7.7645 27.8925 7.645L29.6335 5.9035C29.7272 5.80974 29.7799 5.68258 29.7799 5.55C29.7799 5.41742 29.7272 5.29026 29.6335 5.1965L26.8035 2.3665C26.7097 2.27276 26.5826 2.22011 26.45 2.22011C26.3174 2.22011 26.1903 2.27276 26.0965 2.3665L24.3555 4.1075C24.236 4.054 24.1175 4.0075 24 3.9605V1.5C24 1.36739 23.9473 1.24021 23.8536 1.14645C23.7598 1.05268 23.6326 1 23.5 1H19.5C19.3674 1 19.2402 1.05268 19.1464 1.14645C19.0527 1.24021 19 1.36739 19 1.5V3.9605C18.8825 4.0055 18.764 4.054 18.6445 4.1075L16.9035 2.3665C16.8097 2.27276 16.6826 2.22011 16.55 2.22011C16.4174 2.22011 16.2903 2.27276 16.1965 2.3665L13.3665 5.1965C13.2728 5.29026 13.2201 5.41742 13.2201 5.55C13.2201 5.68258 13.2728 5.80974 13.3665 5.9035L15.1075 7.6445C15.054 7.764 15.0075 7.8825 14.9605 8H12.5C12.3674 8 12.2402 8.05268 12.1464 8.14645C12.0527 8.24021 12 8.36739 12 8.5V12.5C12 12.6326 12.0527 12.7598 12.1464 12.8536C12.2402 12.9473 12.3674 13 12.5 13H14.9605C15.0055 13.1175 15.054 13.236 15.1075 13.3555L13.3665 15.0965C13.2728 15.1903 13.2201 15.3174 13.2201 15.45C13.2201 15.5826 13.2728 15.7097 13.3665 15.8035L16.1965 18.6335C16.2903 18.7272 16.4174 18.7799 16.55 18.7799C16.6826 18.7799 16.8097 18.7272 16.9035 18.6335L18.6445 16.8925C18.764 16.946 18.8825 16.9925 19 17.0395V19.5C19 19.6326 19.0527 19.7598 19.1464 19.8536C19.2402 19.9473 19.3674 20 19.5 20H23.5C23.6326 20 23.7598 19.9473 23.8536 19.8536C23.9473 19.7598 24 19.6326 24 19.5V17.0395C24.1175 16.9945 24.236 16.946 24.3555 16.8925L26.0965 18.6335C26.192 18.7238 26.3185 18.7742 26.45 18.7742C26.5815 18.7742 26.708 18.7238 26.8035 18.6335L29.6335 15.8035C29.7272 15.7097 29.7799 15.5826 29.7799 15.45C29.7799 15.3174 29.7272 15.1903 29.6335 15.0965L27.8925 13.355C27.946 13.2355 27.9925 13.1175 28.0395 13H30.5C30.6326 13 30.7598 12.9473 30.8536 12.8536C30.9473 12.7598 31 12.6326 31 12.5V8.5C31 8.36739 30.9473 8.24021 30.8536 8.14645C30.7598 8.05268 30.6326 8 30.5 8ZM30 12H27.685C27.5787 12.0001 27.4752 12.0341 27.3895 12.097C27.3038 12.16 27.2404 12.2486 27.2085 12.35C27.1099 12.6551 26.9877 12.952 26.843 13.238C26.7961 13.3318 26.7799 13.438 26.7967 13.5416C26.8134 13.6451 26.8624 13.7408 26.9365 13.815L28.573 15.45L26.45 17.573L24.8135 15.9365C24.7393 15.8624 24.6436 15.8134 24.5401 15.7967C24.4365 15.7799 24.3303 15.7961 24.2365 15.843C23.9505 15.9877 23.6536 16.11 23.3485 16.2085C23.2471 16.2404 23.1585 16.3038 23.0955 16.3895C23.0326 16.4752 22.9986 16.5787 22.9985 16.685V19H20V16.685C19.9999 16.5787 19.9659 16.4752 19.903 16.3895C19.84 16.3038 19.7514 16.2404 19.65 16.2085C19.3449 16.11 19.048 15.9877 18.762 15.843C18.6682 15.7961 18.562 15.7799 18.4584 15.7967C18.3549 15.8134 18.2592 15.8624 18.185 15.9365L16.55 17.573L14.427 15.45L16.0635 13.8135C16.1376 13.7393 16.1866 13.6436 16.2033 13.5401C16.2201 13.4365 16.2039 13.3303 16.157 13.2365C16.0123 12.9505 15.89 12.6536 15.7915 12.3485C15.7596 12.2471 15.6962 12.1585 15.6105 12.0955C15.5248 12.0326 15.4213 11.9986 15.315 11.9985H13V9H15.315C15.4213 8.9999 15.5248 8.96591 15.6105 8.90297C15.6962 8.84003 15.7596 8.75142 15.7915 8.65C15.89 8.34494 16.0123 8.04804 16.157 7.762C16.2039 7.66817 16.2201 7.56197 16.2033 7.45841C16.1866 7.35486 16.1376 7.25921 16.0635 7.185L14.427 5.55L16.55 3.427L18.1865 5.0635C18.2607 5.13764 18.3564 5.18657 18.4599 5.20335C18.5635 5.22013 18.6697 5.20391 18.7635 5.157C19.0491 5.01232 19.3455 4.89012 19.65 4.7915C19.7514 4.7596 19.84 4.69621 19.903 4.61052C19.9659 4.52484 19.9999 4.42132 20 4.315V2H23V4.315C23.0001 4.42132 23.0341 4.52484 23.097 4.61052C23.16 4.69621 23.2486 4.7596 23.35 4.7915C23.6551 4.89005 23.952 5.01225 24.238 5.157C24.3318 5.20391 24.438 5.22013 24.5416 5.20335C24.6451 5.18657 24.7408 5.13764 24.815 5.0635L26.45 3.427L28.573 5.55L26.9365 7.1865C26.8624 7.26071 26.8134 7.35636 26.7967 7.45991C26.7799 7.56347 26.7961 7.66967 26.843 7.7635C26.9877 8.04955 27.1099 8.34645 27.2085 8.6515C27.2404 8.75292 27.3038 8.84154 27.3895 8.90447C27.4752 8.96741 27.5787 9.0014 27.685 9.0015H30V12Z" fill="white"/>
<path d="M21.5 6.5C20.7089 6.5 19.9355 6.7346 19.2777 7.17412C18.6199 7.61365 18.1072 8.23836 17.8045 8.96927C17.5017 9.70017 17.4225 10.5044 17.5769 11.2804C17.7312 12.0563 18.1122 12.769 18.6716 13.3284C19.231 13.8878 19.9437 14.2688 20.7196 14.4231C21.4956 14.5775 22.2998 14.4983 23.0307 14.1955C23.7616 13.8928 24.3864 13.3801 24.8259 12.7223C25.2654 12.0645 25.5 11.2911 25.5 10.5C25.4988 9.4395 25.077 8.42278 24.3271 7.67289C23.5772 6.923 22.5605 6.50119 21.5 6.5ZM21.5 13.5C20.9067 13.5 20.3266 13.3241 19.8333 12.9944C19.3399 12.6648 18.9554 12.1962 18.7284 11.6481C18.5013 11.0999 18.4419 10.4967 18.5576 9.91473C18.6734 9.33279 18.9591 8.79824 19.3787 8.37868C19.7982 7.95912 20.3328 7.6734 20.9147 7.55764C21.4967 7.44189 22.0999 7.5013 22.6481 7.72836C23.1962 7.95542 23.6648 8.33994 23.9944 8.83329C24.3241 9.32664 24.5 9.90666 24.5 10.5C24.4992 11.2954 24.1829 12.058 23.6204 12.6204C23.058 13.1829 22.2954 13.4992 21.5 13.5Z" fill="white"/>
<path d="M7 29.5C7.29667 29.5 7.58668 29.412 7.83335 29.2472C8.08003 29.0824 8.27228 28.8481 8.38582 28.574C8.49935 28.2999 8.52905 27.9983 8.47117 27.7074C8.4133 27.4164 8.27044 27.1491 8.06066 26.9393C7.85088 26.7296 7.5836 26.5867 7.29263 26.5288C7.00166 26.4709 6.70006 26.5007 6.42597 26.6142C6.15188 26.7277 5.91762 26.92 5.7528 27.1666C5.58797 27.4133 5.5 27.7033 5.5 28C5.5 28.3978 5.65803 28.7794 5.93934 29.0607C6.22064 29.342 6.60217 29.5 7 29.5ZM7 27.5C7.09889 27.5 7.19556 27.5293 7.27778 27.5843C7.36001 27.6392 7.42409 27.7173 7.46194 27.8087C7.49978 27.9 7.50968 28.0006 7.49039 28.0976C7.4711 28.1945 7.42348 28.2836 7.35355 28.3536C7.28362 28.4235 7.19453 28.4711 7.09754 28.4904C7.00055 28.5097 6.90002 28.4998 6.80866 28.4619C6.71729 28.4241 6.6392 28.36 6.58426 28.2778C6.52932 28.1956 6.5 28.0989 6.5 28C6.5 27.8674 6.55268 27.7402 6.64645 27.6464C6.74021 27.5527 6.86739 27.5 7 27.5Z" fill="white"/>
<path d="M14 10H15V11H14V10Z" fill="white"/>
<path d="M15.8403 15.45L16.5474 14.7428L17.2546 15.45L16.5474 16.1571L15.8403 15.45Z" fill="white"/>
<path d="M21 17H22V18H21V17Z" fill="white"/>
<path d="M25.7388 15.451L26.4459 14.7439L27.153 15.451L26.4459 16.1582L25.7388 15.451Z" fill="white"/>
<path d="M28 10H29V11H28V10Z" fill="white"/>
<path d="M25.74 5.55261L26.4471 4.8455L27.1542 5.55261L26.4471 6.25972L25.74 5.55261Z" fill="white"/>
</svg>
