<svg width="147" height="72" viewBox="0 0 147 72" fill="none" xmlns="http://www.w3.org/2000/svg">
<path d="M0 62.8883V47.4554H6.276V49.4397H3.307V53.1435C4.9936 53.1435 6.151 53.3053 6.7867 53.6286C7.4224 53.952 7.7384 54.7015 7.7384 55.8774V60.1546C7.7384 61.0363 7.4739 61.7125 6.9483 62.1828C6.4193 62.6531 5.3317 62.8883 3.6819 62.8883H0ZM4.4314 59.8642V56.1567C4.4314 55.6165 4.097 55.3482 3.4246 55.3482H3.307V60.6836C4.0566 60.691 4.4314 60.419 4.4314 59.8642ZM17.7733 62.8883H14.4002L13.8306 58.7434H12.3314L11.7545 62.8883H8.3814L10.9095 47.4554H15.2416L17.7733 62.8883ZM13.5587 56.605L13.0738 51.9971L12.6107 56.605H13.5587ZM21.6094 57.2002V62.8883H18.3024V47.4554H21.8667C23.2777 47.4554 24.3285 47.6355 25.012 47.9919C25.6991 48.3521 26.0408 49.0833 26.0408 50.1893V54.4664C26.0408 55.4806 25.7616 56.1934 25.2031 56.6123C24.6409 57.0349 23.4466 57.2296 21.6094 57.2002ZM22.7338 54.1797V50.4759C22.7338 49.932 22.359 49.6601 21.6094 49.6601V54.9955C22.359 54.9955 22.7338 54.7236 22.7338 54.1797ZM34.3267 62.8883H30.9315V55.4806H30.0056V62.8883H26.6104V47.4554H30.0056V53.6065H30.9315V47.4554H34.3267V62.8883ZM44.2 62.8883H40.8269L40.2573 58.7434H38.7581L38.1812 62.8883H34.8081L37.3362 47.4554H41.6683L44.2 62.8883ZM39.9854 56.605L39.5005 51.9971L39.0374 56.605H39.9854ZM53.0187 47.4554L50.5238 60.1986C50.3216 61.2164 50.002 61.9219 49.5574 62.3187C49.1165 62.7119 48.4771 62.9104 47.6393 62.9104H45.5743V60.9262C46.3606 60.9262 46.8567 60.8858 47.0587 60.8012C47.2572 60.7204 47.36 60.4889 47.36 60.1104C47.36 60.0479 47.3343 59.9084 47.2829 59.6915L44.4425 47.4554H47.6173L49.0062 54.8375L50.0203 47.4554H53.0187ZM62.473 62.8883H59.166V49.4617H57.9976V61.0841C57.9976 62.4033 57.1451 63.0647 55.4365 63.0647C54.6906 63.0647 54.0218 63.0059 53.4339 62.892V60.7204C53.6654 60.8122 53.9263 60.86 54.2202 60.86C54.4702 60.86 54.6355 60.8012 54.7089 60.6873C54.7861 60.5734 54.8228 60.2905 54.8228 59.8385V47.4554H62.473V62.8883ZM63.2667 51.5378H66.3533C66.3533 50.52 66.3717 49.9101 66.4121 49.7152C66.4525 49.5169 66.5922 49.4176 66.8383 49.4176C67.147 49.4176 67.3013 49.5682 67.3013 49.8732V53.849H64.2993V55.8333H67.3013V60.5476C67.3013 60.8012 67.1397 60.9262 66.8163 60.9262C66.5076 60.9262 66.3533 60.8012 66.3533 60.5476V58.0527H63.2667V60.6579C63.2667 61.3855 63.6232 61.9697 64.3323 62.418C65.0452 62.8626 65.8573 63.0867 66.7759 63.0867C69.3884 63.0867 70.6965 62.1571 70.6965 60.3014V50.3363C70.6965 48.3263 69.3884 47.3232 66.7759 47.3232C64.4352 47.3232 63.2667 48.2381 63.2667 50.0644V51.5378ZM79.0779 62.8883H75.6827V55.4806H74.7568V62.8883H71.3616V47.4554H74.7568V53.6065H75.6827V47.4554H79.0779V62.8883ZM86.4158 62.8883H79.7798V47.4554H86.3718V49.4397H83.175V53.6065H86.0595V55.4806H83.175V60.9041H86.4158V62.8883ZM90.2777 57.2002V62.8883H86.9707V47.4554H90.5349C91.9459 47.4554 92.9968 47.6355 93.6803 47.9919C94.3674 48.3521 94.7091 49.0833 94.7091 50.1893V54.4664C94.7091 55.4806 94.4298 56.1934 93.8713 56.6123C93.3092 57.0349 92.1149 57.2296 90.2777 57.2002ZM91.4021 54.1797V50.4759C91.4021 49.932 91.0273 49.6601 90.2777 49.6601V54.9955C91.0273 54.9955 91.4021 54.7236 91.4021 54.1797ZM101.672 47.4554V49.4397H98.7179V62.8883H95.3227V47.4554H101.672ZM102.223 60.2464V50.3216C102.223 48.3227 103.517 47.3232 106.107 47.3232C108.661 47.3232 109.94 48.3152 109.94 50.2995V60.2243C109.94 61.1209 109.583 61.8117 108.87 62.2968C108.161 62.778 107.232 63.0206 106.089 63.0206C103.513 63.0206 102.223 62.0946 102.223 60.2464ZM106.633 60.3971V49.9026C106.633 49.594 106.453 49.4397 106.092 49.4397C105.718 49.4397 105.53 49.594 105.53 49.9026V60.3971C105.53 60.7057 105.718 60.86 106.092 60.86C106.453 60.86 106.633 60.7057 106.633 60.3971ZM122.481 62.8883H119.46V54.2239L117.693 62.8883H115.356L113.331 54.2239V62.8883H110.686V47.4554H115.043L116.594 55.4622L117.943 47.4554H122.481V62.8883ZM132.398 62.8883H129.025L128.455 58.7434H126.956L126.379 62.8883H123.006L125.534 47.4554H129.866L132.398 62.8883ZM128.183 56.605L127.698 51.9971L127.235 56.605H128.183ZM146.067 62.8883H132.949V47.4554H136.256V60.4632H137.843V47.4554H141.15V60.4632H142.76V47.4554H146.067V62.8883Z" fill="#EF7F1A"/>
<path fill-rule="evenodd" clip-rule="evenodd" d="M60.5572 46.1396C60.0753 41.9112 62.1892 39.7275 66.0803 38.9429C72.1033 38.352 78.7767 40.0681 83.9327 38.3861C87.8871 37.0955 89.0984 34.9542 86.2747 31.9307C85.209 30.2262 85.7284 28.6532 88.1732 28.4245C94.9967 28.0714 99.0358 24.8866 100.005 20.5954C100.985 16.257 98.8282 10.7873 93.2385 5.96946C88.3247 1.73396 81.8707 -0.119544 75.0556 0.00595623C79.8133 2.36296 82.0253 4.60666 82.1006 6.64316C82.2045 9.45706 78.2312 11.8778 71.2583 13.6618C67.2268 14.9579 61.47 16.6621 59.2734 20.7976C57.8371 23.5009 58.4852 26.5207 62.9737 28.4245C65.7856 29.6325 65.0231 31.6465 62.8011 32.115C58.7303 31.8664 54.7413 34.9328 56.631 39.542C57.4865 41.6264 58.9537 43.8478 60.5572 46.1396Z" fill="#EF7F1A"/>
<path d="M35.2977 69.8649C35.3459 70.2466 35.4608 70.5196 35.6424 70.6814C35.8252 70.8432 36.0932 70.9248 36.4478 70.9248C36.8245 70.9248 37.1161 70.7864 37.3224 70.511C37.5286 70.2355 37.6386 69.8365 37.6534 69.3164H35.7931V68.5753H37.6534C37.6336 68.0564 37.5175 67.6599 37.3038 67.3857C37.0901 67.1115 36.7912 66.9743 36.4045 66.9743C36.0673 66.9743 35.8079 67.0584 35.6288 67.2264C35.4484 67.3957 35.3373 67.6686 35.294 68.049H34.3811C34.4392 67.4746 34.6455 67.0288 34.9988 66.7101C35.3521 66.3926 35.8202 66.2332 36.4045 66.2332C36.8369 66.2332 37.2161 66.3345 37.5447 66.537C37.8721 66.7396 38.1253 67.03 38.3032 67.4068C38.4798 67.7835 38.57 68.2195 38.5725 68.7136V69.1597C38.5725 69.6587 38.486 70.0984 38.3131 70.4764C38.1413 70.8531 37.8931 71.1447 37.5694 71.3472C37.247 71.5498 36.8727 71.6511 36.4478 71.6511C35.8499 71.6511 35.3694 71.4931 35.0074 71.1781C34.6455 70.8631 34.438 70.4245 34.3848 69.8649H35.2977ZM43.6347 71.577H42.723V69.2423H40.3674V71.577H39.452V66.3073H40.3674V68.5011H42.723V66.3073H43.6347V71.577ZM47.7975 69.2276H45.6333V70.8432H48.1631V71.577H44.7179V66.3073H48.1372V67.0485H45.6333V68.5011H47.7975V69.2276ZM49.8233 69.6277V71.577H48.908V66.3073H50.924C51.512 66.3073 51.9801 66.4606 52.326 66.7681C52.6719 67.0757 52.8461 67.482 52.8461 67.9873C52.8461 68.5049 52.6756 68.9077 52.3371 69.1955C51.9987 69.4833 51.5231 69.6277 50.9128 69.6277H49.8233ZM49.8233 68.8867H50.924C51.2501 68.8867 51.4984 68.81 51.6701 68.6568C51.8405 68.5036 51.927 68.2826 51.927 67.9935C51.927 67.7082 51.8393 67.4808 51.6664 67.3103C51.4922 67.1411 51.2538 67.0534 50.9487 67.0485H49.8233V68.8867ZM57.015 67.0485H54.5829V71.577H53.6712V66.3073H57.015V67.0485ZM61.0038 66.3073H61.9192V71.577H61.0038V67.8243L58.6914 71.577H57.776V66.3073H58.6914V70.0639L61.0038 66.3073ZM65.6151 71.577V69.613H64.5948L63.5782 71.577H62.5974L63.7733 69.3411C63.1606 69.0508 62.8543 68.5765 62.8543 67.9169C62.8543 67.4116 63.0198 67.0188 63.3521 66.7372C63.6832 66.4555 64.1464 66.3122 64.7393 66.3073H66.5304V71.577H65.6151ZM63.7659 67.9564C63.7659 68.2541 63.8499 68.4851 64.0155 68.6518C64.1822 68.8186 64.4317 68.9014 64.7653 68.9014H65.6151V67.0485H64.7653C64.4268 67.0485 64.176 67.1287 64.0118 67.2906C63.8487 67.4524 63.7659 67.6747 63.7659 67.9564ZM73.6308 71.577H72.7179V67.0485H70.3981V71.577H69.4864V66.3073H73.6308V71.577ZM75.6492 69.6277V71.577H74.7339V66.3073H76.7498C77.3378 66.3073 77.8059 66.4606 78.1518 66.7681C78.4977 67.0757 78.6719 67.482 78.6719 67.9873C78.6719 68.5049 78.5014 68.9077 78.1629 69.1955C77.8245 69.4833 77.3489 69.6277 76.7386 69.6277H75.6492ZM75.6492 68.8867H76.7498C77.0759 68.8867 77.3242 68.81 77.4959 68.6568C77.6663 68.5036 77.7528 68.2826 77.7528 67.9935C77.7528 67.7082 77.6651 67.4808 77.4922 67.3103C77.318 67.1411 77.0796 67.0534 76.7745 67.0485H75.6492V68.8867ZM83.676 69.0793C83.676 69.5968 83.5858 70.0502 83.4079 70.4393C83.2288 70.8297 82.9743 71.1286 82.642 71.3374C82.311 71.5461 81.9293 71.6511 81.4969 71.6511C81.0695 71.6511 80.6891 71.5461 80.3555 71.3374C80.0208 71.1286 79.7626 70.831 79.581 70.4456C79.3982 70.0589 79.3068 69.6129 79.3043 69.1089V68.8113C79.3043 68.2974 79.3945 67.844 79.5773 67.4499C79.7589 67.0559 80.0158 66.7557 80.3481 66.5469C80.6792 66.3382 81.0597 66.2332 81.4895 66.2332C81.9194 66.2332 82.2999 66.3369 82.6309 66.5432C82.9632 66.7495 83.2189 67.046 83.4005 67.4339C83.5809 67.8217 83.6735 68.2726 83.676 68.7865V69.0793ZM82.7594 68.8051C82.7594 68.2208 82.6495 67.7736 82.4283 67.4635C82.2085 67.1522 81.8947 66.9967 81.4895 66.9967C81.0942 66.9967 80.7842 67.151 80.5618 67.461C80.3382 67.7711 80.2246 68.2097 80.2197 68.7755V69.0793C80.2197 69.6586 80.3321 70.1059 80.5581 70.4209C80.7829 70.7371 81.0967 70.8952 81.4969 70.8952C81.9021 70.8952 82.2134 70.7407 82.4321 70.4319C82.6507 70.1231 82.7594 69.6722 82.7594 69.0793V68.8051ZM87.9586 67.0485H85.5265V71.577H84.6148V66.3073H87.9586V67.0485ZM89.6337 69.6277V71.577H88.7184V66.3073H90.7344C91.3224 66.3073 91.7905 66.4606 92.1364 66.7681C92.4823 67.0757 92.6565 67.482 92.6565 67.9873C92.6565 68.5049 92.486 68.9077 92.1475 69.1955C91.8091 69.4833 91.3335 69.6277 90.7232 69.6277H89.6337ZM89.6337 68.8867H90.7344C91.0605 68.8867 91.3088 68.81 91.4805 68.6568C91.6509 68.5036 91.7374 68.2826 91.7374 67.9935C91.7374 67.7082 91.6497 67.4808 91.4768 67.3103C91.3026 67.1411 91.0642 67.0534 90.7591 67.0485H89.6337V68.8867ZM96.5365 69.2276H94.3723V70.8432H96.9021V71.577H93.4569V66.3073H96.8762V67.0485H94.3723V68.5011H96.5365V69.2276ZM101.669 69.8601C101.616 70.4221 101.408 70.8619 101.046 71.1781C100.684 71.4931 100.204 71.6511 99.6023 71.6511C99.1823 71.6511 98.813 71.5511 98.493 71.3522C98.1731 71.1533 97.9273 70.8704 97.7532 70.5035C97.579 70.1367 97.4889 69.7106 97.4814 69.2251V68.7322C97.4814 68.2344 97.5704 67.797 97.7458 67.4178C97.9223 67.0386 98.1743 66.7459 98.5042 66.5409C98.834 66.3358 99.2145 66.2332 99.6456 66.2332C100.227 66.2332 100.696 66.3914 101.05 66.7064C101.405 67.0226 101.611 67.4684 101.669 68.0453H100.757C100.714 67.6673 100.603 67.3932 100.426 67.2264C100.248 67.0584 99.989 66.9743 99.6456 66.9743C99.2478 66.9743 98.9427 67.1202 98.729 67.4105C98.5153 67.702 98.4053 68.1282 98.4016 68.6902V69.1572C98.4016 69.7279 98.5029 70.1614 98.7068 70.4615C98.9106 70.7605 99.2095 70.9099 99.6023 70.9099C99.9618 70.9099 100.232 70.8297 100.413 70.6678C100.594 70.506 100.709 70.2368 100.757 69.8601H101.669ZM106.508 69.8601C106.454 70.4221 106.247 70.8619 105.885 71.1781C105.523 71.4931 105.043 71.6511 104.441 71.6511C104.021 71.6511 103.652 71.5511 103.332 71.3522C103.012 71.1533 102.766 70.8704 102.592 70.5035C102.418 70.1367 102.327 69.7106 102.32 69.2251V68.7322C102.32 68.2344 102.409 67.797 102.584 67.4178C102.761 67.0386 103.013 66.7459 103.343 66.5409C103.673 66.3358 104.053 66.2332 104.484 66.2332C105.066 66.2332 105.534 66.3914 105.889 66.7064C106.243 67.0226 106.45 67.4684 106.508 68.0453H105.596C105.553 67.6673 105.441 67.3932 105.265 67.2264C105.087 67.0584 104.828 66.9743 104.484 66.9743C104.086 66.9743 103.781 67.1202 103.568 67.4105C103.354 67.702 103.244 68.1282 103.24 68.6902V69.1572C103.24 69.7279 103.342 70.1614 103.545 70.4615C103.749 70.7605 104.048 70.9099 104.441 70.9099C104.8 70.9099 105.071 70.8297 105.251 70.6678C105.433 70.506 105.548 70.2368 105.596 69.8601H106.508ZM110.274 70.3542H108.233L107.806 71.577H106.855L108.845 66.3073H109.666L111.66 71.577H110.705L110.274 70.3542ZM108.49 69.613H110.017L109.254 67.4252L108.49 69.613Z" fill="#EF7F1A"/>
<path d="M32.5844 67.9385H0V69.9455H32.5844V67.9385Z" fill="#EF7F1A"/>
<path d="M146.067 67.9385H113.483V69.9455H146.067V67.9385Z" fill="#EF7F1A"/>
</svg>
