<svg width="32" height="32" viewBox="0 0 32 32" fill="none" xmlns="http://www.w3.org/2000/svg">
<g clip-path="url(#clip0)">
<path d="M31.5444 8.403C31.5444 8.403 31.5444 8.403 31.5443 8.403L31.5432 8.40194L29.4777 8.10724C29.1874 8.06589 28.9856 7.79702 29.0269 7.50671C29.0468 7.36719 29.1213 7.24135 29.234 7.1568L30.9034 5.90475C31.138 5.7288 31.1855 5.39601 31.0096 5.16138L29.0981 2.61269C28.9221 2.37807 28.5893 2.33054 28.3547 2.5065L26.6858 3.75854C26.4522 3.93582 26.1192 3.89016 25.9419 3.65653C25.8558 3.5431 25.8189 3.3998 25.8395 3.25889L26.1347 1.19339C26.1763 0.903079 25.9747 0.634073 25.6845 0.592391C25.6843 0.592391 25.6841 0.592325 25.6839 0.592325L22.532 0.142056C22.2418 0.100374 21.9726 0.30188 21.9309 0.592192C21.9309 0.592258 21.9309 0.592258 21.9309 0.592325L21.6357 2.65783C21.5944 2.94814 21.3255 3.14998 21.0352 3.10863C20.8957 3.08878 20.7698 3.01424 20.6853 2.90154L19.4338 1.23215C19.2578 0.997527 18.925 0.950004 18.6904 1.12596L17.0948 2.32331C16.3729 2.24658 15.645 2.24658 14.9231 2.32331C10.1957 2.86365 6.48847 6.63372 6.02765 11.3696C6.01332 11.5198 6.00801 11.669 6.00057 11.8182H5.84128C5.58933 11.8187 5.37236 11.9962 5.32198 12.243L4.95508 13.9878L3.48533 12.9742C3.2744 12.8286 2.98953 12.8546 2.80834 13.0358L1.21541 14.6287C1.03448 14.8098 1.00859 15.0943 1.15381 15.3052L2.16267 16.7723L0.417349 17.1392C0.173232 17.1927 -0.000529764 17.4091 1.21357e-06 17.659V19.7829C-0.000131531 20.0341 0.175821 20.251 0.421597 20.3027L2.16692 20.6696L1.15806 22.1367C1.01284 22.3476 1.03873 22.6321 1.21966 22.8132L2.81259 24.4061C2.99378 24.5873 3.27865 24.6133 3.48958 24.4677L4.95667 23.4562L5.32358 25.2015C5.37395 25.4484 5.59092 25.6258 5.84287 25.6263H7.96678C8.21793 25.6264 8.43484 25.4505 8.48661 25.2047L8.85351 23.4594L10.3206 24.4682C10.5315 24.6135 10.8159 24.5876 10.9971 24.4066L11.8217 23.5794V25.0927C11.8241 25.8481 12.2287 26.5449 12.8836 26.9214V29.8715C12.8836 31.0445 13.8345 31.9954 15.0075 31.9954H17.1314C18.3044 31.9954 19.2554 31.0445 19.2554 29.8715V26.9214C19.9102 26.5449 20.3149 25.8481 20.3173 25.0927V22.9911C20.3317 22.1068 20.7943 21.2904 21.5455 20.8236C21.9861 20.5378 22.404 20.2182 22.7954 19.8679L22.0871 19.0767C21.7369 19.3905 21.3629 19.6765 20.9683 19.9321C19.914 20.5938 19.2686 21.7463 19.2554 22.9911V25.0927C19.2554 25.6792 18.7799 26.1546 18.1934 26.1546H13.9456C13.3591 26.1546 12.8836 25.6792 12.8836 25.0927V22.947C12.8713 21.7258 12.2361 20.5956 11.1994 19.9502C6.99091 17.3058 5.72294 11.7505 8.36734 7.54202C10.0081 4.93087 12.8715 3.34159 15.9553 3.33057C15.9474 3.34949 15.9405 3.3688 15.9346 3.38845C15.9149 3.52783 15.9514 3.6694 16.036 3.7819L17.2876 5.45077C17.4195 5.62154 17.4322 5.8561 17.3194 6.04015C17.2108 6.22533 17.0009 6.32635 16.7884 6.29555L14.7229 6.00033C14.4326 5.95871 14.1636 6.16028 14.1219 6.45053C14.1219 6.45073 14.1219 6.45093 14.1219 6.45113L13.6711 9.6046C13.6295 9.89485 13.831 10.1639 14.1213 10.2056C14.1215 10.2056 14.1217 10.2057 14.1219 10.2057L16.1874 10.5009C16.4777 10.5422 16.6795 10.8111 16.6382 11.1014C16.6183 11.2409 16.5438 11.3668 16.4311 11.4513L14.7622 12.7029C14.5276 12.8788 14.4801 13.2116 14.656 13.4462L16.5675 15.9949C16.7435 16.2295 17.0763 16.2771 17.3109 16.1011L18.9803 14.8496C19.2151 14.674 19.5479 14.722 19.7235 14.9568C19.8076 15.0692 19.8437 15.2103 19.824 15.3492L19.5293 17.4147C19.4877 17.705 19.6892 17.9741 19.9795 18.0158C19.9795 18.0158 19.9795 18.0158 19.9796 18.0158L23.1336 18.4666C23.1584 18.4698 23.1835 18.4714 23.2085 18.4714C23.4728 18.4717 23.6971 18.2775 23.7347 18.0158L24.0294 15.9503C24.0707 15.66 24.3396 15.4582 24.6299 15.4995C24.7694 15.5194 24.8953 15.5939 24.9798 15.7066L26.2319 17.3755C26.4078 17.6101 26.7406 17.6576 26.9752 17.4816L29.5239 15.5701C29.7585 15.3942 29.8061 15.0614 29.6301 14.8268L28.3786 13.1579C28.2473 12.9869 28.2346 12.7527 28.3467 12.5685C28.453 12.3809 28.6649 12.2792 28.8777 12.3136L30.9432 12.6083C31.2335 12.65 31.5026 12.4484 31.5443 12.1582C31.5443 12.1581 31.5443 12.1581 31.5443 12.1581L31.9946 9.00406C32.0362 8.71375 31.8347 8.44468 31.5444 8.403ZM13.9456 27.2166H18.1934V28.2785H13.9456V27.2166ZM13.9456 29.3405H18.1934V29.8715C18.1934 30.458 17.718 30.9334 17.1314 30.9334H15.0075C14.421 30.9334 13.9456 30.458 13.9456 29.8715V29.3405ZM9.71847 20.1838C10.0084 20.4209 10.3113 20.6416 10.6259 20.8449C11.1276 21.1619 11.5053 21.6416 11.6958 22.2036L10.5569 23.3404L9.45405 22.5801C8.97112 22.2473 8.30986 22.369 7.977 22.8519C7.89722 22.9678 7.84121 23.0983 7.81227 23.2358L7.53403 24.5617H6.2719L5.99367 23.238C5.87287 22.664 5.30971 22.2967 4.73579 22.4175C4.5982 22.4464 4.46771 22.5024 4.35189 22.5822L3.24852 23.3404L2.28108 22.3751L3.04091 21.2728C3.37403 20.7901 3.2527 20.1288 2.76998 19.7956C2.65409 19.7157 2.52347 19.6595 2.38568 19.6305L1.06196 19.3517V18.0901L2.38568 17.8114C2.9594 17.6897 3.32591 17.126 3.20425 16.5522C3.17538 16.4161 3.12009 16.287 3.04144 16.1723L2.28108 15.0668L3.24852 14.1014L4.35242 14.8618C4.83554 15.1943 5.49681 15.0721 5.82927 14.589C5.90891 14.4733 5.9648 14.343 5.99367 14.2055L6.08659 13.7637C6.17168 14.3756 6.31259 14.9782 6.50766 15.5643C4.76054 15.7726 3.51308 17.3578 3.72135 19.1049C3.92963 20.852 5.51486 22.0995 7.26198 21.8912C8.31371 21.7658 9.23436 21.1259 9.71847 20.1838ZM8.89387 19.4356C8.49736 20.5378 7.28255 21.1097 6.18044 20.7133C5.07833 20.3168 4.50634 19.102 4.90278 17.9999C5.2061 17.1568 6.00661 16.5952 6.90264 16.597C6.90954 16.597 6.91591 16.597 6.92281 16.597C7.41111 17.6499 8.07795 18.6102 8.89387 19.4356ZM30.5652 11.4805L29.0253 11.2607C28.1544 11.1363 27.3476 11.7416 27.2232 12.6125C27.1635 13.0307 27.2723 13.4555 27.5259 13.7935L28.4588 15.0376L26.7597 16.3119L25.8262 15.0684C25.2984 14.3645 24.3 14.2217 23.5962 14.7495C23.2582 15.0029 23.0347 15.3802 22.9748 15.7984L22.7598 17.3404L20.6577 17.0399L20.8775 15.5C21.0022 14.6292 20.3973 13.8221 19.5264 13.6974C19.1079 13.6375 18.6829 13.7464 18.3447 14L17.1007 14.933L15.8263 13.2338L17.0699 12.3004C17.7737 11.7726 17.9165 10.7741 17.3887 10.0703C17.1353 9.73237 16.758 9.50889 16.3398 9.44902L14.7999 9.2292L15.1005 7.12706L16.6403 7.34688C17.5112 7.4716 18.3182 6.86668 18.4429 5.99581C18.5028 5.57734 18.394 5.15229 18.1403 4.81412L17.2042 3.56898L18.9033 2.29464L19.8368 3.53872C20.3646 4.24259 21.363 4.38536 22.0668 3.85757C22.4048 3.60416 22.6283 3.22683 22.6881 2.80862L22.9079 1.26879L25.0101 1.56879L24.7903 3.10863C24.6659 3.97956 25.2711 4.78638 26.142 4.91076C26.5602 4.9705 26.9851 4.86165 27.323 4.6081L28.5671 3.67518L29.8414 5.3743L28.5974 6.30776C27.8935 6.83555 27.7507 7.83399 28.2785 8.5378C28.5319 8.87577 28.9092 9.09924 29.3275 9.15911L30.8673 9.37893L30.5652 11.4805Z" fill="white"/>
<path d="M22.832 5.05566C20.4861 5.05566 18.5842 6.95749 18.5842 9.30348C18.5842 11.6495 20.4861 13.5513 22.832 13.5513C25.178 13.5513 27.0799 11.6495 27.0799 9.30348C27.0772 6.95855 25.177 5.05825 22.832 5.05566ZM22.832 12.4893C21.0725 12.4893 19.6462 11.063 19.6462 9.30348C19.6462 7.54396 21.0725 6.11762 22.832 6.11762C24.5916 6.11762 26.0179 7.54396 26.0179 9.30348C26.0158 11.0621 24.5907 12.4873 22.832 12.4893Z" fill="white"/>
<path d="M16.6005 23.4996H15.5386V25.0926H16.6005V23.4996Z" fill="white"/>
<path d="M13.747 18.2849C10.4692 17.0045 8.85009 13.3093 10.1306 10.0315C10.6268 8.76141 11.5173 7.68399 12.6713 6.95762L12.1037 6.0592C8.63 8.24756 7.58802 12.8375 9.77638 16.3112C10.6239 17.6565 11.8804 18.6946 13.3615 19.2731C14.6725 19.7754 15.5382 21.0338 15.5385 22.4377H16.6005C16.6022 20.5958 15.4671 18.9438 13.747 18.2849Z" fill="white"/>
<path d="M29.8748 19.7828H26.158V20.8448H29.8748V19.7828Z" fill="white"/>
<path d="M25.9671 22.5603L25.2874 23.3762L28.4734 26.0307L29.1532 25.2148L25.9671 22.5603Z" fill="white"/>
<path d="M24.0341 24.0306H22.9722V27.7475H24.0341V24.0306Z" fill="white"/>
<path d="M4.78976 8.11694L0.542236 9.17871L0.799632 10.2084L5.04715 9.14663L4.78976 8.11694Z" fill="white"/>
<path d="M2.04122 2.8912L1.42432 3.75488L5.14086 6.40949L5.75776 5.54581L2.04122 2.8912Z" fill="white"/>
<path d="M7.00246 0.00453223L5.97363 0.267578L7.05962 4.51506L8.08844 4.25202L7.00246 0.00453223Z" fill="white"/>
</g>
<defs>
<clipPath id="clip0">
<rect width="32" height="32" fill="white"/>
</clipPath>
</defs>
</svg>
