<svg width="32" height="32" viewBox="0 0 32 32" fill="none" xmlns="http://www.w3.org/2000/svg">
<path d="M13.5 9.75231L18.5 13.0856V2.5H23.25C23.9393 2.5 24.5 3.06075 24.5 3.75V12.2512H27V3.75C27 1.68225 25.3177 0 23.25 0H3.75C1.68225 0 0 1.68225 0 3.75V23.25C0 25.3177 1.68225 27 3.75 27H12.2512V24.5H3.75C3.06075 24.5 2.5 23.9393 2.5 23.25V3.75C2.5 3.06075 3.06075 2.5 3.75 2.5H8.5V13.0856L13.5 9.75231ZM16 8.41438L13.5 6.74769L11 8.41438V2.5H16V8.41438Z" fill="#EF7F1A"/>
<path d="M26.1162 19.8662L22.0001 23.9823L20.3841 22.3662L18.6162 24.134L22.0001 27.5178L27.8841 21.634L26.1162 19.8662Z" fill="#EF7F1A"/>
<path d="M23.25 14.5C18.4253 14.5 14.5 18.4253 14.5 23.25C14.5 28.0747 18.4253 32 23.25 32C28.0747 32 32 28.0747 32 23.25C32 18.4253 28.0747 14.5 23.25 14.5ZM23.25 29.5C19.8037 29.5 17 26.6962 17 23.25C17 19.8038 19.8037 17 23.25 17C26.6963 17 29.5 19.8038 29.5 23.25C29.5 26.6962 26.6963 29.5 23.25 29.5Z" fill="#EF7F1A"/>
</svg>
