<svg width="32" height="32" viewBox="0 0 32 32" fill="none" xmlns="http://www.w3.org/2000/svg">
<path d="M14 2.5H18.5H23.25C23.9393 2.5 24.5 3.06075 24.5 3.75V12.2512H27V3.75C27 1.68225 25.3177 0 23.25 0H3.75C1.68225 0 0 1.68225 0 3.75V21.25C0 23.3177 1.68225 25 3.75 25H12.2512V22.5H3.75C3.06075 22.5 2.5 21.9393 2.5 21.25V3.75C2.5 3.06075 3.06075 2.5 3.75 2.5H8.5H9.75H14ZM16 2.5L14 1L11.5 2.5H11H16Z" fill="#EF7F1A"/>
<path d="M23.25 14.5C18.4253 14.5 14.5 18.4253 14.5 23.25C14.5 28.0747 18.4253 32 23.25 32C28.0747 32 32 28.0747 32 23.25C32 18.4253 28.0747 14.5 23.25 14.5ZM23.25 29.5C19.8037 29.5 17 26.6962 17 23.25C17 19.8038 19.8037 17 23.25 17C26.6963 17 29.5 19.8038 29.5 23.25C29.5 26.6962 26.6963 29.5 23.25 29.5Z" fill="#EF7F1A"/>
<path d="M5 15.2129H6.52344V11.4043H5V15.2129Z" fill="#EF7F1A"/>
<path d="M16.4766 7.5957H18V3.78711H16.4766V7.5957Z" fill="#EF7F1A"/>
<path d="M10.7383 11.4043H12.2617V7.5957H10.7383V11.4043Z" fill="#EF7F1A"/>
<path d="M6.14258 8.35742H9.97656V10.6426H6.14258C5.51254 10.6426 5 10.13 5 9.5C5 8.86996 5.51254 8.35742 6.14258 8.35742Z" fill="#EF7F1A"/>
<path d="M16.8574 10.6426H13.0234V8.35742H16.8574C17.4875 8.35742 18 8.86996 18 9.5C18 10.13 17.4875 10.6426 16.8574 10.6426Z" fill="#EF7F1A"/>
<path d="M16.8574 14.4512H7.28516V12.166H16.8574C17.4875 12.166 18 12.6786 18 13.3086C18 13.9386 17.4875 14.4512 16.8574 14.4512Z" fill="#EF7F1A"/>
<path d="M6.14258 4.54883H15.7148V6.83398H6.14258C5.51254 6.83398 5 6.32145 5 5.69141C5 5.06136 5.51254 4.54883 6.14258 4.54883Z" fill="#EF7F1A"/>
<path d="M26.97 23.9221C26.9889 23.7825 27.0141 23.6439 27.0141 23.4999C27.0141 23.3551 26.9879 23.2173 26.97 23.0779L27.8144 22.464C28.0028 22.3272 28.0553 22.0771 27.9371 21.88L27.179 20.6199C27.0609 20.4237 26.8089 20.3419 26.5915 20.4301L25.6198 20.8233C25.3827 20.6496 25.1306 20.4967 24.8523 20.3851L24.7229 19.3942C24.6929 19.1691 24.4942 19 24.2581 19H22.7428C22.5067 19 22.3071 19.1691 22.278 19.3942L22.1488 20.3851C21.8704 20.4967 21.6173 20.6506 21.3812 20.8233L20.4095 20.4301C20.1911 20.3419 19.9391 20.4228 19.821 20.6199L19.0638 21.88C18.9457 22.0762 18.9982 22.3264 19.1865 22.464L20.0309 23.0779C20.0121 23.2173 19.9859 23.3551 19.9859 23.4999C19.9859 23.6449 20.0121 23.7825 20.03 23.9221L19.1856 24.5358C18.9972 24.6726 18.9447 24.9229 19.0629 25.12L19.821 26.3801C19.9391 26.5762 20.1911 26.6581 20.4085 26.5699L21.3802 26.1757C21.6173 26.3494 21.8694 26.5023 22.1477 26.6141L22.2771 27.6048C22.3071 27.8308 22.5058 28 22.7419 28H24.2572C24.4933 28 24.6929 27.8308 24.722 27.6058L24.8512 26.6149C25.1296 26.5033 25.3827 26.3494 25.6188 26.1765L26.5905 26.5699C26.808 26.6581 27.0601 26.5772 27.1781 26.3801L27.9362 25.119C28.0543 24.9229 28.0018 24.6726 27.8135 24.535L26.97 23.9221ZM23.5 25.3C22.4645 25.3 21.6258 24.4945 21.6258 23.4999C21.6258 22.5055 22.4645 21.7 23.5 21.7C24.5355 21.7 25.3742 22.5055 25.3742 23.4999C25.3742 24.4945 24.5355 25.3 23.5 25.3Z" fill="#EF7F1A"/>
</svg>
