<svg width="31" height="31" viewBox="0 0 31 31" fill="none" xmlns="http://www.w3.org/2000/svg">
<g clip-path="url(#clip0_272:19164)">
<path d="M15.5463 6.29385C13.2038 6.29385 11.2983 8.30704 11.2983 10.7822C11.2983 13.2567 13.2038 15.2699 15.5463 15.2699C17.8889 15.2699 19.7943 13.2567 19.7943 10.7822C19.7943 8.30704 17.8889 6.29385 15.5463 6.29385ZM15.5463 13.4535C14.2052 13.4535 13.1147 12.2553 13.1147 10.7822C13.1147 9.30909 14.2052 8.11026 15.5463 8.11026C16.8874 8.11026 17.9779 9.30909 17.9779 10.7822C17.9779 12.2553 16.8874 13.4535 15.5463 13.4535Z" fill="#EF7F1A"/>
<path d="M24.5912 6.89751H24.5621C22.5302 6.91446 20.8918 8.67093 20.9093 10.8125C20.9269 12.9437 22.578 14.6663 24.5972 14.6663H24.6263C25.6223 14.6578 26.5523 14.2382 27.2443 13.4844C27.92 12.7475 28.2876 11.777 28.2791 10.7513C28.2615 8.62007 26.6104 6.89751 24.5912 6.89751ZM25.9056 12.2559C25.5581 12.6349 25.0986 12.8456 24.6112 12.8499H24.5972C23.5734 12.8499 22.7348 11.9326 22.7257 10.7973C22.716 9.65723 23.5467 8.72239 24.5773 8.71391H24.5912C25.615 8.71391 26.4536 9.6318 26.4627 10.7665C26.4675 11.3308 26.2695 11.8599 25.9056 12.2559Z" fill="#EF7F1A"/>
<path d="M25.5326 15.1204H23.6557C22.2116 15.1204 20.8965 15.6834 19.9187 16.6013C18.9669 16.0383 17.8583 15.7149 16.6746 15.7149H14.4168C13.2101 15.7149 12.0803 16.051 11.117 16.634C10.1349 15.6968 8.80594 15.1204 7.34434 15.1204H5.46738C2.45275 15.1204 0 17.5731 0 20.5877V22.9025H8.02488V24.7061H23.0665V22.9025H31V20.5877C31 17.5731 28.5472 15.1204 25.5326 15.1204ZM8.10662 21.086H1.81641V20.5877C1.81641 18.5746 3.4542 16.9368 5.46738 16.9368H7.34434C8.24043 16.9368 9.06205 17.2613 9.6984 17.7996C8.87678 18.6981 8.30824 19.8315 8.10662 21.086ZM21.2501 22.8897H18.1883H12.8117H9.84129V22.1069C9.84129 21.7563 9.88125 21.4142 9.95633 21.086C10.1035 20.4418 10.3874 19.8485 10.7755 19.3393C11.1612 18.8325 11.6504 18.4087 12.2117 18.0993C12.8662 17.7372 13.6182 17.5313 14.4168 17.5313H16.6746C17.4454 17.5313 18.1713 17.7227 18.8089 18.0605C19.3696 18.3572 19.8618 18.7677 20.2541 19.2606C20.6743 19.7873 20.9801 20.4079 21.1351 21.086C21.2102 21.4142 21.2501 21.7563 21.2501 22.1069V22.8897ZM29.1836 21.086H22.9848C22.7796 19.8115 22.1959 18.6617 21.3537 17.756C21.9821 17.2437 22.7838 16.9368 23.6557 16.9368H25.5326C27.5458 16.9368 29.1836 18.5746 29.1836 20.5877V21.086Z" fill="#EF7F1A"/>
<path d="M6.4027 6.89751H6.37364C4.34168 6.91446 2.70328 8.67093 2.72084 10.8125C2.7384 12.9437 4.38952 14.6663 6.40875 14.6663H6.43782C7.43381 14.6578 8.36381 14.2382 9.05586 13.4844C9.73157 12.7475 10.0991 11.777 10.0906 10.7513C10.0731 8.62007 8.42194 6.89751 6.4027 6.89751ZM7.71717 12.2559C7.36963 12.6349 6.91008 12.8456 6.42268 12.8499H6.40875C5.38491 12.8499 4.54633 11.9326 4.53725 10.7973C4.52756 9.65723 5.35826 8.72239 6.38877 8.71391H6.4027C7.42655 8.71391 8.26512 9.6318 8.2742 10.7665C8.27905 11.3308 8.08106 11.8599 7.71717 12.2559Z" fill="#EF7F1A"/>
</g>
<defs>
<clipPath id="clip0_272:19164">
<rect width="31" height="31" fill="white"/>
</clipPath>
</defs>
</svg>
