<svg width="31" height="31" viewBox="0 0 31 31" fill="none" xmlns="http://www.w3.org/2000/svg">
<path d="M6.05438 21.4334H1.21088C0.542109 21.4334 0 21.9756 0 22.6443V29.7885C0 30.4573 0.542109 30.9994 1.21088 30.9994H6.05438C6.72315 30.9994 7.26526 30.4573 7.26526 29.7885V22.6443C7.26526 21.9756 6.72315 21.4334 6.05438 21.4334ZM4.8435 28.5776H2.42175V23.8552H4.8435V28.5776ZM16.2702 14.2893H11.4267C10.758 14.2893 10.2159 14.8314 10.2159 15.5002V29.7885C10.2159 30.4573 10.758 30.9994 11.4267 30.9994H16.2702C16.939 30.9994 17.4811 30.4573 17.4811 29.7885V15.5002C17.4811 14.8314 16.939 14.2893 16.2702 14.2893ZM15.0594 28.5776H12.6376V16.711H15.0594V28.5776ZM30.775 8.19694L25.3189 0.510905C24.8242 -0.186136 23.8152 -0.152655 23.3442 0.510844L17.8875 8.19688C17.3196 8.99691 17.8925 10.1087 18.875 10.1087H20.6987V29.7885C20.6987 30.4573 21.2408 30.9994 21.9095 30.9994H26.753C27.4218 30.9994 27.9639 30.4573 27.9639 29.7885V10.1087H29.7875C30.7685 10.1087 31.3436 8.998 30.775 8.19694ZM26.753 7.68698C26.0843 7.68698 25.5422 8.22915 25.5422 8.89786V28.5776H23.1204V8.89786C23.1204 8.22915 22.5783 7.68698 21.9095 7.68698H21.2196L24.3315 3.30361L27.4431 7.68698H26.753Z" fill="#EF7F1A"/>
</svg>
