<svg width="31" height="31" viewBox="0 0 31 31" fill="none" xmlns="http://www.w3.org/2000/svg">
<g clip-path="url(#clip0_272:19166)">
<path d="M20.3694 11.1769L17.7564 10.4485L16.2562 8.18863C15.9095 7.6511 15.0895 7.65129 14.7429 8.18863L13.2427 10.4485L10.6297 11.1769C10.3366 11.2587 10.1038 11.4817 10.0098 11.7711C9.91576 12.0605 9.97291 12.3778 10.1621 12.6162L11.8478 14.7413L11.7332 17.4514C11.7204 17.7554 11.8606 18.0456 12.1068 18.2245C12.3529 18.4033 12.6722 18.447 12.9575 18.3408L15.4996 17.3944L18.0417 18.3408C18.3269 18.447 18.6463 18.4033 18.8924 18.2245C19.1386 18.0456 19.2788 17.7554 19.266 17.4514L19.1513 14.7413L20.8371 12.6162C21.0263 12.3778 21.0834 12.0605 20.9894 11.7711C20.8952 11.4817 20.6625 11.2587 20.3694 11.1769ZM17.5181 13.8774C17.3826 14.0483 17.3131 14.2622 17.3223 14.4802L17.3933 16.1612L15.8164 15.5741C15.612 15.498 15.387 15.498 15.1826 15.5741L13.6057 16.1612L13.6768 14.4802C13.686 14.2622 13.6165 14.0483 13.4809 13.8774L12.4352 12.5592L14.0561 12.1073C14.2662 12.0487 14.4483 11.9166 14.5689 11.7348L15.4995 10.333L16.4302 11.7348C16.5508 11.9165 16.7328 12.0487 16.9429 12.1073L18.5638 12.5592L17.5181 13.8774Z" fill="#EF7F1A"/>
<path d="M30.7335 23.9472L27.1914 20.4047C32.5109 11.58 25.865 -0.100962 15.4996 0.00069484C5.13561 -0.101385 -1.51263 11.582 3.80814 20.4047L0.266027 23.9472C0.043461 24.1697 -0.0480237 24.4917 0.0243285 24.798C0.0966202 25.1044 0.322456 25.3514 0.621008 25.4509L4.31721 26.6829L5.54913 30.3791C5.64867 30.6777 5.8957 30.9035 6.20206 30.9757C6.50842 31.048 6.83034 30.9566 7.05291 30.7341L11.3341 26.4532C13.9355 27.3221 17.0639 27.3221 19.6653 26.4532L23.9466 30.7341C24.1692 30.9566 24.4911 31.048 24.7974 30.9757C25.1038 30.9035 25.3508 30.6776 25.4504 30.3791L26.6823 26.6829L30.3785 25.4509C30.6771 25.3514 30.9029 25.1044 30.9752 24.798C31.0475 24.4917 30.956 24.1697 30.7335 23.9472ZM6.808 28.4107L5.89673 25.6775C5.80633 25.4063 5.59351 25.1936 5.32239 25.1032L2.58947 24.1921L4.84862 21.9331C6.09986 23.5171 7.70378 24.8174 9.50677 25.7119L6.808 28.4107ZM15.4998 25.2926C9.02755 25.2926 3.76194 20.0271 3.76194 13.5548C4.40669 -2.01706 26.5952 -2.01251 27.2376 13.5549C27.2376 20.0271 21.972 25.2926 15.4998 25.2926ZM25.6771 25.1032C25.4059 25.1936 25.1932 25.4063 25.1028 25.6775L24.1916 28.4107L21.4928 25.7119C23.2958 24.8175 24.8998 23.5171 26.151 21.9331L28.4101 24.1921L25.6771 25.1032Z" fill="#EF7F1A"/>
<path d="M15.5 3.89162C10.1718 3.89162 5.83691 8.22646 5.83691 13.5547C6.36772 26.3742 24.6343 26.3705 25.1632 13.5547C25.1631 8.22646 20.8283 3.89162 15.5 3.89162ZM15.5 21.4015C11.1733 21.4015 7.65329 17.8815 7.65329 13.5547C8.08431 3.14497 22.9174 3.14799 23.3468 13.5548C23.3468 17.8815 19.8267 21.4015 15.5 21.4015Z" fill="#EF7F1A"/>
</g>
<defs>
<clipPath id="clip0_272:19166">
<rect width="31" height="31" fill="white"/>
</clipPath>
</defs>
</svg>
