<svg width="31" height="31" viewBox="0 0 31 31" fill="none" xmlns="http://www.w3.org/2000/svg">
<path d="M18.6311 28.2355C18.3754 28.2992 18.1148 28.3558 17.8561 28.4034C17.1799 28.5292 16.7328 29.1796 16.8579 29.8564C16.9197 30.1894 17.1088 30.4667 17.3655 30.6478C17.6302 30.834 17.9669 30.9181 18.3101 30.8543C18.6182 30.7971 18.9287 30.7299 19.2333 30.6539C19.9011 30.4877 20.3079 29.8112 20.1413 29.1437C19.9751 28.4757 19.2992 28.0692 18.6311 28.2355Z" fill="#EF7F1A"/>
<path d="M27.847 11.5315C27.9343 11.7946 28.101 12.0094 28.3115 12.1578C28.6236 12.3777 29.0321 12.4516 29.4218 12.3227C30.0753 12.1058 30.4293 11.4011 30.2131 10.748C30.1147 10.4503 30.0054 10.1516 29.8889 9.8608C29.6333 9.22175 28.9084 8.91062 28.269 9.16624C27.6303 9.42173 27.3191 10.1468 27.5749 10.7861C27.6727 11.0305 27.7643 11.2814 27.847 11.5315Z" fill="#EF7F1A"/>
<path d="M22.6808 26.4562C22.461 26.6013 22.2341 26.7418 22.0055 26.8734C21.4092 27.2174 21.2049 27.9797 21.5488 28.5757C21.6422 28.7379 21.7665 28.8704 21.9097 28.9717C22.2941 29.2422 22.8162 29.2827 23.2509 29.0323C23.5227 28.8755 23.7929 28.7088 24.0547 28.5357C24.6287 28.1564 24.7867 27.3832 24.4073 26.809C24.0279 26.2345 23.2551 26.0767 22.6808 26.4562Z" fill="#EF7F1A"/>
<path d="M30.9885 15.0122C30.9614 14.3244 30.382 13.789 29.694 13.8158C29.0068 13.843 28.4711 14.4225 28.498 15.1101C28.5084 15.373 28.511 15.6398 28.505 15.9024C28.4953 16.3338 28.7063 16.7183 29.0341 16.9494C29.2295 17.0869 29.4665 17.1701 29.7235 17.176C30.4113 17.1913 30.9814 16.6457 30.9966 15.9575C31.0035 15.6437 31.0009 15.3258 30.9885 15.0122Z" fill="#EF7F1A"/>
<path d="M27.6435 23.1778C27.0919 22.7639 26.3116 22.8763 25.8985 23.4269C25.7403 23.6377 25.5737 23.8459 25.4031 24.0465C24.9573 24.5702 25.0203 25.357 25.544 25.8031C25.5739 25.8284 25.6041 25.8517 25.6354 25.8735C26.1561 26.2406 26.8798 26.1563 27.3008 25.6622C27.5045 25.423 27.7031 25.1742 27.8921 24.9224C28.3053 24.3719 28.1935 23.591 27.6435 23.1778Z" fill="#EF7F1A"/>
<path d="M29.4754 18.6729C28.8186 18.4669 28.1193 18.8325 27.9135 19.4892C27.8347 19.7401 27.7474 19.9922 27.6532 20.2391C27.4463 20.7826 27.6445 21.3806 28.099 21.7011C28.1824 21.7597 28.2742 21.8093 28.374 21.847C29.017 22.0924 29.737 21.7698 29.9821 21.1265C30.094 20.833 30.1978 20.5331 30.2917 20.2348C30.4973 19.5779 30.1319 18.8788 29.4754 18.6729Z" fill="#EF7F1A"/>
<path d="M13.1942 28.4146C12.08 28.2146 11.0112 27.8739 9.99774 27.3988C9.98575 27.3925 9.97502 27.3854 9.96242 27.3797C9.72359 27.2672 9.48516 27.1468 9.25406 27.021C9.25326 27.0201 9.25179 27.0195 9.25053 27.0189C8.82651 26.7854 8.41269 26.5271 8.01066 26.2441C2.14838 22.1145 0.738857 13.9855 4.86868 8.12327C5.76669 6.84901 6.85343 5.78594 8.06497 4.94337C8.0799 4.93297 8.09483 4.92264 8.10962 4.91218C12.3789 1.97051 18.176 1.77226 22.7093 4.7951L21.7356 6.20189C21.4649 6.59346 21.6315 6.8788 22.1053 6.83615L26.3346 6.45751C26.8091 6.41487 27.0929 6.00444 26.9652 5.54624L25.8295 1.45427C25.7024 0.995531 25.3769 0.940621 25.1059 1.33212L24.13 2.74225C20.8032 0.509007 16.8129 -0.34256 12.8524 0.344211C12.4536 0.413248 12.0603 0.497745 11.6724 0.596102C11.6694 0.596636 11.667 0.596969 11.6646 0.597502C11.6496 0.601167 11.6344 0.606032 11.6198 0.610096C8.20458 1.48712 5.22486 3.479 3.09864 6.32097C3.08072 6.34223 3.06226 6.36302 3.04533 6.38615C2.97463 6.48137 2.90446 6.5788 2.83575 6.67622C2.7234 6.83589 2.61265 6.99955 2.5067 7.16321C2.49344 7.18294 2.48331 7.20299 2.47171 7.22292C0.717133 9.94182 -0.12917 13.0851 0.0159678 16.2852C0.016301 16.2958 0.0157013 16.3063 0.0159678 16.3171C0.0300285 16.6297 0.0548178 16.9467 0.08847 17.2587C0.0902692 17.2788 0.094734 17.2979 0.0981325 17.318C0.132918 17.6317 0.176565 17.9462 0.231275 18.2606C0.787303 21.4684 2.30052 24.355 4.56801 26.601C4.57327 26.6063 4.57874 26.612 4.58407 26.6174C4.58594 26.6195 4.588 26.6206 4.5898 26.6225C5.199 27.2234 5.86165 27.7791 6.57515 28.2817C8.44234 29.5974 10.5215 30.4671 12.7544 30.8678C13.4319 30.9895 14.0791 30.5385 14.2007 29.8613C14.3221 29.1837 13.8715 28.536 13.1942 28.4146Z" fill="#EF7F1A"/>
<path d="M14.7353 5.54419C14.178 5.54419 13.7266 5.996 13.7266 6.55249V16.598L22.914 21.3473C23.0618 21.4239 23.2202 21.4599 23.376 21.4599C23.7409 21.4599 24.0933 21.2612 24.2725 20.9145C24.5281 20.4197 24.3347 19.8117 23.8398 19.5562L15.7428 15.3701V6.55249C15.7428 5.996 15.2919 5.54419 14.7353 5.54419Z" fill="#EF7F1A"/>
</svg>
