<svg width="32" height="32" viewBox="0 0 32 32" fill="none" xmlns="http://www.w3.org/2000/svg">
<g clip-path="url(#clip0)">
<path d="M19.0556 19.7472L13.6002 18.464V14.7045C13.6466 14.6683 13.6946 14.6357 13.7404 14.5979C15.552 13.0869 16.6516 10.8891 16.7746 8.53333H16.8002C17.0947 8.53333 17.3335 8.29453 17.3335 8V7.46667C17.3335 3.34293 13.9906 0 9.86685 0C5.74311 0 2.40018 3.34293 2.40018 7.46667V8.53333C2.40018 8.82787 2.63898 9.06667 2.93351 9.06667C2.95538 9.0646 2.97711 9.06127 2.99858 9.05653C3.24891 11.2194 4.32111 13.2033 5.99325 14.5979C6.03858 14.6357 6.08711 14.6683 6.13351 14.7045V18.464L0.678046 19.7472C0.436979 19.8039 0.266646 20.0191 0.266846 20.2667V31.4667C0.266846 31.7612 0.505646 32 0.800179 32H18.9335C19.228 32 19.4668 31.7612 19.4668 31.4667V20.2667C19.467 20.0191 19.2966 19.8039 19.0556 19.7472ZM6.13351 30.9333H1.33351V20.6891L6.13351 19.56V30.9333ZM3.46685 7.46667C3.46685 3.93207 6.33225 1.06667 9.86685 1.06667C13.4014 1.06667 16.2668 3.93207 16.2668 7.46667H14.6668C13.1948 7.46493 12.0019 6.272 12.0002 4.8C12.0004 4.50547 11.7618 4.26647 11.4673 4.2662C11.4282 4.2662 11.3893 4.2704 11.3511 4.27893L11.0311 4.3504C8.33951 4.9452 5.77718 6.02013 3.46685 7.52373V7.46667ZM12.5335 30.9333H7.20018V21.1845L9.09031 20.5547L7.75218 25.4613C7.71765 25.5879 7.73091 25.7227 7.78951 25.84L9.38951 29.04C9.52118 29.3035 9.84151 29.4103 10.105 29.2786C10.2083 29.227 10.292 29.1433 10.3436 29.04L11.9436 25.84C12.0022 25.7227 12.0155 25.5879 11.981 25.4613L10.6428 20.5547L12.5335 21.1845V30.9333ZM7.20018 20.0597V18.9963L8.47645 19.6363L7.20018 20.0597ZM9.86685 21.76L10.8988 25.544L9.86685 27.6075L8.83485 25.544L9.86685 21.76ZM12.5335 20.0597L11.2572 19.6331L12.5335 18.9963V20.0597ZM12.5335 17.8032L9.86685 19.1365L7.20018 17.8032V15.376C8.02958 15.7853 8.94191 15.9988 9.86685 16C10.7918 15.9986 11.7041 15.7849 12.5335 15.3755V17.8032ZM6.67698 13.7781C5.08458 12.4473 4.12265 10.5103 4.02471 8.43733C6.15558 7.04513 8.51311 6.03553 10.9911 5.45387C11.3104 7.2342 12.8581 8.5308 14.6668 8.53333H15.7079C15.5854 10.5723 14.6263 12.4702 13.0572 13.7781C11.2094 15.3186 8.52471 15.3186 6.67698 13.7781ZM18.4002 30.9333H13.6002V19.56L18.4002 20.6891V30.9333Z" fill="white"/>
<path d="M14.1336 8.53333H10.9336C10.639 8.53333 10.4002 8.77213 10.4002 9.06666V9.59999H9.33356V9.06666C9.33356 8.77213 9.09476 8.53333 8.80023 8.53333H5.60023C5.30569 8.53333 5.06689 8.77213 5.06689 9.06666V11.2C5.06689 11.4945 5.30569 11.7333 5.60023 11.7333H8.80023C9.09476 11.7333 9.33356 11.4945 9.33356 11.2V10.6667H10.4002V11.2C10.4002 11.4945 10.639 11.7333 10.9336 11.7333H14.1336C14.4281 11.7333 14.6669 11.4945 14.6669 11.2V9.06666C14.6669 8.77213 14.4281 8.53333 14.1336 8.53333ZM8.26689 10.6667H6.13356V9.59999H8.26689V10.6667ZM13.6002 10.6667H11.4669V9.59999H13.6002V10.6667Z" fill="white"/>
<path d="M31.5518 13.2971C31.487 13.2055 31.4071 13.1255 31.3154 13.0607V13.0591L30.204 12.2751L30.7736 11.0399C31.0026 10.5451 30.787 9.95839 30.2922 9.72939C30.1892 9.68173 30.0787 9.65213 29.9656 9.64206L28.612 9.52046L28.4898 8.16579C28.4393 7.62266 27.958 7.22326 27.4148 7.27379C27.3036 7.28413 27.195 7.31326 27.0935 7.35993L25.8594 7.93006L25.0748 6.81806C24.7597 6.3724 24.143 6.26659 23.6974 6.58166C23.6057 6.64646 23.5258 6.72639 23.461 6.81806L22.677 7.92953L21.4402 7.35993C20.9454 7.13093 20.3586 7.34646 20.1296 7.84126C20.082 7.94433 20.0524 8.05479 20.0423 8.16793L19.9207 9.52153L18.566 9.64366C18.0228 9.69419 17.6235 10.1755 17.674 10.7187C17.6844 10.8299 17.7135 10.9385 17.7602 11.0399L18.3303 12.2741L17.2188 13.0581C16.7732 13.3732 16.6674 13.9899 16.9824 14.4355C17.0472 14.5272 17.1272 14.6071 17.2188 14.6719L18.3303 15.4559L17.7602 16.6933C17.5312 17.1881 17.7467 17.7748 18.2415 18.0038C18.3446 18.0515 18.455 18.0811 18.5682 18.0911L19.9218 18.2127L20.0439 19.5674C20.0733 19.8868 20.2558 20.1721 20.5335 20.3327V26.6666C20.5336 26.9611 20.7724 27.1999 21.067 27.1998C21.2084 27.1998 21.3439 27.1436 21.4439 27.0437L24.2668 24.2207L27.0898 27.0437C27.2981 27.2519 27.6358 27.2519 27.844 27.0435C27.944 26.9435 28.0002 26.8079 28.0002 26.6666V20.3327C28.2781 20.1719 28.4606 19.8861 28.4898 19.5663L28.6114 18.2127L29.966 18.0906C30.5093 18.0412 30.9096 17.5607 30.8602 17.0175C30.85 16.9053 30.8207 16.7956 30.7735 16.6933L30.2034 15.4591L31.3154 14.6746C31.7611 14.3595 31.867 13.7428 31.5518 13.2971ZM26.9336 25.3791L24.644 23.0895C24.4358 22.8813 24.0982 22.8813 23.8899 23.0895L21.6003 25.3791V20.3007L22.676 19.8037L23.4606 20.9157C23.7757 21.3613 24.3924 21.4671 24.838 21.1521C24.9297 21.0873 25.0096 21.0073 25.0744 20.9157L25.8584 19.8042L26.9336 20.3007V25.3791ZM29.5352 14.6239C29.1448 14.8983 29.0071 15.4131 29.2083 15.8458L29.7603 17.0378L28.4531 17.1557C27.977 17.1977 27.5994 17.5746 27.5566 18.0506L27.4376 19.3599L26.2467 18.809C25.814 18.6086 25.3 18.7459 25.0248 19.1354L24.267 20.209L23.5096 19.1349C23.2351 18.7447 22.7205 18.6069 22.2878 18.8079L21.0958 19.3599L20.9779 18.0527C20.9359 17.5767 20.559 17.199 20.083 17.1562L18.7736 17.0373L19.3246 15.8463C19.5259 15.4137 19.3884 14.8991 18.9982 14.6245L17.9246 13.8666L18.9987 13.1093C19.3891 12.8349 19.5268 12.3201 19.3256 11.8874L18.7736 10.6954L20.0808 10.5775C20.5569 10.5355 20.9346 10.1586 20.9774 9.68259L21.0952 8.37433L22.2862 8.92526C22.7188 9.12679 23.2336 8.98926 23.508 8.59886L24.267 7.52419L25.0243 8.59833C25.2988 8.98853 25.8134 9.12626 26.2462 8.92526L27.4382 8.37326L27.556 9.68046C27.598 10.1565 27.975 10.5342 28.451 10.577L29.7592 10.6949L29.2083 11.8858C29.007 12.3184 29.1445 12.8331 29.5347 13.1077L30.6094 13.8666L29.5352 14.6239Z" fill="white"/>
<path d="M24.2668 9.06665C21.6159 9.06665 19.4668 11.2157 19.4668 13.8667C19.4668 16.5176 21.6159 18.6666 24.2668 18.6666C26.9178 18.6666 29.0668 16.5176 29.0668 13.8667C29.0638 11.2169 26.9165 9.06958 24.2668 9.06665ZM24.2668 17.6C22.2049 17.6 20.5335 15.9285 20.5335 13.8667C20.5335 11.8048 22.2049 10.1333 24.2668 10.1333C26.3287 10.1333 28.0001 11.8048 28.0001 13.8667C27.9977 15.9275 26.3277 17.5976 24.2668 17.6Z" fill="white"/>
<path d="M28.5335 3.73328H27.4668V4.79994H28.5335V3.73328Z" fill="white"/>
<path d="M30.6668 3.73328H29.6001V4.79994H30.6668V3.73328Z" fill="white"/>
<path d="M29.6001 2.66663H28.5334V3.73329H29.6001V2.66663Z" fill="white"/>
<path d="M29.6001 4.80005H28.5334V5.86672H29.6001V4.80005Z" fill="white"/>
<path d="M22.6668 1.06665H21.6001V2.13332H22.6668V1.06665Z" fill="white"/>
<path d="M24.8003 1.06665H23.7336V2.13332H24.8003V1.06665Z" fill="white"/>
<path d="M23.7334 0H22.6667V1.06667H23.7334V0Z" fill="white"/>
<path d="M23.7334 2.1333H22.6667V3.19997H23.7334V2.1333Z" fill="white"/>
</g>
<defs>
<clipPath id="clip0">
<rect width="32" height="32" fill="white"/>
</clipPath>
</defs>
</svg>
