<svg width="129" height="103" viewBox="0 0 129 103" fill="none" xmlns="http://www.w3.org/2000/svg">
<path d="M0 97.904C0 80.272 2.62934 63.568 7.888 47.792C13.1467 31.7067 21.0347 15.776 31.552 0L53.824 10.208C46.0907 25.056 40.6773 38.6667 37.584 51.04C34.8 63.4133 33.408 75.0133 33.408 85.84C33.408 89.2427 33.408 92.1813 33.408 94.656C33.408 97.1307 33.5627 99.76 33.872 102.544H0V97.904ZM75.168 97.904C75.168 80.272 77.7973 63.568 83.056 47.792C88.3147 31.7067 96.2027 15.776 106.72 0L128.992 10.208C121.259 25.056 115.845 38.6667 112.752 51.04C109.968 63.4133 108.576 75.0133 108.576 85.84C108.576 89.2427 108.576 92.1813 108.576 94.656C108.576 97.1307 108.731 99.76 109.04 102.544H75.168V97.904Z" fill="white"/>
</svg>
