<svg width="31" height="31" viewBox="0 0 31 31" fill="none" xmlns="http://www.w3.org/2000/svg">
<path d="M20.0588 0C14.0259 0 9.11765 4.90821 9.11765 10.9412C9.11765 13.6302 10.0933 16.0951 11.7084 18.0022L9.57353 20.1371L8.20588 18.7694L0.833596 26.1417C0.29602 26.6792 0 27.3939 0 28.1541C0 29.7233 1.27671 31 2.84592 31C3.60603 31 4.32073 30.704 4.85825 30.1665L12.2306 22.7941L10.8629 21.4265L12.9978 19.2916C14.9049 20.9067 17.3699 21.8824 20.0588 21.8824C26.0918 21.8824 31 16.9741 31 10.9412C31 4.90821 26.0918 0 20.0588 0ZM3.56889 28.877C3.37578 29.0701 3.11896 29.1765 2.84586 29.1765C2.28215 29.1765 1.82353 28.7179 1.82353 28.1541C1.82353 27.881 1.9299 27.6243 2.12301 27.4311L8.20588 21.3482L9.65176 22.7941L3.56889 28.877ZM20.0588 20.0588C15.0314 20.0588 10.9412 15.9686 10.9412 10.9412C10.9412 5.91371 15.0314 1.82353 20.0588 1.82353C25.0863 1.82353 29.1765 5.91371 29.1765 10.9412C29.1765 15.9686 25.0863 20.0588 20.0588 20.0588Z" fill="white"/>
<path d="M20.0585 3.64709C16.0365 3.64709 12.7644 6.91918 12.7644 10.9412C12.7644 14.9633 16.0365 18.2353 20.0585 18.2353C24.0805 18.2353 27.3526 14.9633 27.3526 10.9412C27.3526 6.91918 24.0805 3.64709 20.0585 3.64709ZM20.0585 16.4118C17.042 16.4118 14.5879 13.9577 14.5879 10.9412C14.5879 7.92473 17.042 5.47062 20.0585 5.47062C23.075 5.47062 25.5291 7.92473 25.5291 10.9412C25.5291 13.9577 23.075 16.4118 20.0585 16.4118Z" fill="white"/>
<path d="M19.1469 11.4753L17.9681 10.2966L16.6787 11.5859L19.1469 14.0542L23.4387 9.76238L22.1493 8.47302L19.1469 11.4753Z" fill="white"/>
</svg>
