<svg width="16" height="16" viewBox="0 0 16 16" fill="none" xmlns="http://www.w3.org/2000/svg">
<path fill-rule="evenodd" clip-rule="evenodd" d="M4 0C1.79089 0 0 1.79083 0 4V12C0 14.2092 1.79089 16 4 16H12C14.2091 16 16 14.2092 16 12V4C16 1.79083 14.2091 0 12 0H4ZM12.9131 10.2349C12.9236 10.2522 12.9349 10.2739 12.947 10.2999C12.9528 10.3123 12.9585 10.3291 12.9642 10.3504C12.9707 10.3741 12.9772 10.4033 12.9836 10.4379C12.9956 10.5039 12.9949 10.5629 12.981 10.615C12.967 10.667 12.9237 10.7148 12.8508 10.7582C12.778 10.8015 12.6754 10.8233 12.5436 10.8233L11.2108 10.8441C11.1273 10.8615 11.0302 10.8527 10.9193 10.8181C10.8082 10.7833 10.7179 10.7452 10.6484 10.7035L10.5443 10.641C10.4402 10.568 10.3187 10.457 10.1799 10.3077C10.0828 10.2034 9.99536 10.1063 9.91785 10.0163C9.88452 9.97766 9.85303 9.94031 9.82324 9.9043C9.72424 9.78461 9.61841 9.6839 9.50562 9.60229C9.3927 9.52063 9.29468 9.49377 9.2113 9.52155C9.20642 9.52319 9.20081 9.52539 9.19434 9.5282C9.18713 9.53131 9.17896 9.5351 9.1698 9.53973C9.15247 9.54846 9.1228 9.57367 9.08118 9.6153C9.03967 9.6568 9.00232 9.70807 8.96924 9.7688C8.93616 9.82959 8.90662 9.91986 8.88074 10.0396C8.85474 10.1593 8.84338 10.2938 8.84692 10.443C8.84692 10.495 8.84082 10.5428 8.82874 10.5862C8.81665 10.6295 8.80359 10.6617 8.78967 10.6824L8.76892 10.7085C8.70642 10.7744 8.61438 10.8126 8.49304 10.8231H7.89417C7.64771 10.8369 7.39441 10.8083 7.13403 10.7371C6.87366 10.6659 6.64551 10.5739 6.44934 10.4612C6.2533 10.3483 6.07446 10.2338 5.91309 10.1174C5.75171 10.0012 5.62927 9.90143 5.54602 9.81812L5.41577 9.69318C5.3811 9.65845 5.33337 9.60651 5.27258 9.53699C5.21191 9.46759 5.08777 9.30963 4.90039 9.06317C4.81189 8.94678 4.72412 8.8269 4.63708 8.70355C4.53992 8.56573 4.44373 8.42352 4.34851 8.27698C4.16797 7.99945 3.95532 7.63318 3.71069 7.17847C3.46594 6.72375 3.2395 6.25171 3.03125 5.76227C3.01038 5.70679 3 5.65991 3 5.6217C3 5.5835 3.00525 5.55573 3.01562 5.53839L3.0365 5.50714C3.08862 5.44122 3.1875 5.4082 3.33325 5.4082L4.75989 5.39783C4.80164 5.40472 4.84143 5.41595 4.87964 5.43164C4.91785 5.44733 4.94556 5.46204 4.96289 5.47589L4.98901 5.49158C5.04456 5.52972 5.08618 5.58527 5.11389 5.65814C5.18335 5.83167 5.26318 6.01135 5.35339 6.19708C5.39905 6.29089 5.4397 6.37341 5.47559 6.44464C5.51074 6.5144 5.54114 6.5733 5.56689 6.6214L5.65015 6.7724C5.75085 6.98065 5.84802 7.16113 5.94165 7.31384C6.03552 7.46655 6.11963 7.58545 6.19434 7.67053C6.26892 7.75562 6.34094 7.82239 6.41028 7.87097C6.47974 7.91962 6.5387 7.94391 6.5874 7.94391C6.63586 7.94391 6.68286 7.93512 6.72791 7.91785C6.73181 7.91589 6.73633 7.91223 6.74133 7.90692C6.74524 7.90289 6.74939 7.89783 6.75391 7.89178C6.7644 7.87793 6.78516 7.83978 6.81641 7.77728C6.84766 7.71484 6.87109 7.63324 6.88672 7.53259C6.90247 7.43195 6.91882 7.29138 6.93616 7.11084C6.95349 6.93036 6.95349 6.71344 6.93616 6.46002C6.92932 6.32123 6.9137 6.19452 6.8894 6.08002C6.86511 5.96552 6.84082 5.88562 6.81641 5.84052L6.78516 5.77795C6.69836 5.65997 6.5509 5.58533 6.34265 5.55414C6.31897 5.55054 6.31018 5.53735 6.31604 5.51465C6.32141 5.49402 6.33899 5.46552 6.36877 5.4292C6.40112 5.39307 6.43555 5.36108 6.47205 5.33325C6.50208 5.31036 6.53357 5.29028 6.56653 5.27307C6.75049 5.1828 7.16541 5.14111 7.81091 5.14801C8.09558 5.15155 8.32983 5.17407 8.51392 5.2157C8.58325 5.23309 8.64148 5.25653 8.68823 5.28601C8.73511 5.31555 8.77063 5.35718 8.79504 5.41095C8.81921 5.46484 8.83765 5.52039 8.84961 5.57758C8.86169 5.63489 8.8678 5.71387 8.8678 5.81451C8.8678 5.91516 8.86621 6.01068 8.86267 6.10089L8.85815 6.21979L8.84961 6.4679C8.84436 6.62238 8.8418 6.76556 8.8418 6.89746C8.8418 6.93567 8.84021 7.00848 8.83655 7.11615C8.83313 7.22375 8.83228 7.30713 8.83398 7.36609C8.83508 7.40216 8.83777 7.44232 8.84204 7.48682C8.84473 7.51514 8.84814 7.54517 8.85217 7.57697C8.86255 7.65851 8.88257 7.72626 8.91211 7.78003C8.94153 7.8338 8.98059 7.87634 9.02917 7.90759C9.05701 7.91449 9.08655 7.92145 9.1178 7.92841C9.14893 7.93542 9.19409 7.91632 9.25305 7.87115C9.31213 7.82599 9.37805 7.76617 9.45093 7.69153C9.5238 7.61694 9.61401 7.50061 9.72168 7.34271C9.82935 7.18481 9.94727 6.99823 10.0757 6.78302C10.2841 6.42206 10.4696 6.03156 10.6329 5.61157C10.6467 5.57684 10.6641 5.54639 10.6848 5.52045C10.7057 5.49438 10.7247 5.4762 10.7422 5.46582L10.7628 5.45013L10.7889 5.43713L10.8567 5.42145C10.9019 5.41101 10.9365 5.41022 10.9608 5.41882L12.4603 5.40845C12.51 5.4021 12.5564 5.39862 12.5996 5.39813C12.674 5.39722 12.7386 5.40497 12.7936 5.42145C12.8802 5.44751 12.9341 5.47614 12.955 5.50739L12.986 5.55933C13.0658 5.78149 12.8054 6.29163 12.205 7.09003C12.1217 7.20111 12.0089 7.34857 11.8666 7.53259C11.5958 7.87976 11.4396 8.10699 11.3979 8.21454C11.339 8.35699 11.3632 8.4975 11.4709 8.63635C11.4958 8.66711 11.5354 8.71033 11.5895 8.76587C11.6633 8.84186 11.7644 8.94104 11.8927 9.06335H11.8979L11.9031 9.0686L11.9083 9.07373L11.9187 9.08411C12.4081 9.53882 12.7396 9.92236 12.9131 10.2349Z" fill="#66707B"/>
</svg>
